<svg width="31" height="30" viewBox="0 0 31 30" fill="none" xmlns="http://www.w3.org/2000/svg">
<g id="alarm">
<g id="v2">
<path d="M16.4688 10.3125C16.4688 9.79473 16.035 9.375 15.5 9.375C14.965 9.375 14.5312 9.79473 14.5312 10.3125V16.6153L11.7631 21.0802C11.4878 21.5241 11.6366 22.1 12.0953 22.3664C12.5541 22.6328 13.1492 22.4888 13.4244 22.0448L16.3307 17.3573C16.421 17.2116 16.4688 17.0449 16.4688 16.875V10.3125Z" fill="#001622"/>
<path d="M12.5938 0C12.0587 0 11.625 0.419733 11.625 0.9375C11.625 1.45527 12.0587 1.875 12.5938 1.875H13.5625V3.88302C6.98951 4.79323 1.9375 10.2628 1.9375 16.875C1.9375 21.1078 4.00861 24.872 7.22018 27.271L6.05397 28.3996C5.67565 28.7657 5.67565 29.3593 6.05397 29.7254C6.43229 30.0915 7.04567 30.0915 7.42399 29.7254L8.86915 28.3269C10.8303 29.3924 13.093 30 15.5 30C17.907 30 20.1697 29.3924 22.1309 28.3269L23.576 29.7254C23.9543 30.0915 24.5677 30.0915 24.946 29.7254C25.3244 29.3593 25.3244 28.7657 24.946 28.3996L23.7798 27.271C26.9914 24.872 29.0625 21.1078 29.0625 16.875C29.0625 10.2628 24.0105 4.79323 17.4375 3.88302V1.875H18.4062C18.9413 1.875 19.375 1.45527 19.375 0.9375C19.375 0.419733 18.9413 0 18.4062 0H12.5938ZM14.6047 5.65782C14.9 5.63608 15.1986 5.625 15.5 5.625C15.8014 5.625 16.1 5.63608 16.3953 5.65782C22.3968 6.09964 27.125 10.9534 27.125 16.875C27.125 20.8569 24.9881 24.3563 21.7589 26.357C19.9527 27.4761 17.8061 28.125 15.5 28.125C13.1939 28.125 11.0473 27.4761 9.24109 26.357C6.01193 24.3563 3.875 20.8569 3.875 16.875C3.875 10.9534 8.60324 6.09964 14.6047 5.65782Z" fill="#001622"/>
<path d="M0 6.5625C0 7.97503 0.645607 9.24163 1.66684 10.101C3.15793 7.25498 5.55931 4.93106 8.50023 3.48807C7.61218 2.49978 6.30336 1.875 4.84375 1.875C2.16862 1.875 0 3.97366 0 6.5625Z" fill="#001622"/>
<path d="M26.1562 1.875C24.6966 1.875 23.3878 2.49978 22.4998 3.48807C25.4407 4.93106 27.8421 7.25498 29.3332 10.101C30.3544 9.24163 31 7.97503 31 6.5625C31 3.97366 28.8314 1.875 26.1562 1.875Z" fill="#001622"/>
</g>
</g>
</svg>
