<svg width="60" height="53" viewBox="0 0 60 53" fill="none" xmlns="http://www.w3.org/2000/svg">
<g id="arrow-up-square-fill">
<path id="Subtract" d="M7.5 53C3.35786 53 0 50.0339 0 46.375V6.625C0 2.96611 3.35786 0 7.5 0H52.5C56.6421 0 60 2.96611 60 6.625V46.375C60 50.0339 56.6421 53 52.5 53H7.5ZM31.875 38.0938V18.9048L39.9242 26.0149C40.6564 26.6617 41.8436 26.6617 42.5758 26.0149C43.3081 25.3681 43.3081 24.3194 42.5758 23.6726L31.3258 13.7351C30.5936 13.0883 29.4064 13.0883 28.6742 13.7351L17.4242 23.6726C16.6919 24.3194 16.6919 25.3681 17.4242 26.0149C18.1564 26.6617 19.3436 26.6617 20.0758 26.0149L28.125 18.9048V38.0938C28.125 39.0085 28.9645 39.75 30 39.75C31.0355 39.75 31.875 39.0085 31.875 38.0938Z" fill="#EDA415"/>
</g>
</svg>
