<svg width="35" height="28" viewBox="0 0 35 28" fill="none" xmlns="http://www.w3.org/2000/svg">
<path d="M30.625 2.25C31.8331 2.25 32.8125 3.0335 32.8125 4V18C32.8125 18.9665 31.8331 19.75 30.625 19.75H25.1562C23.7792 19.75 22.4825 20.2687 21.6562 21.15L17.5 25.5833L13.3437 21.15C12.5175 20.2687 11.2208 19.75 9.84375 19.75H4.375C3.16688 19.75 2.1875 18.9665 2.1875 18V4C2.1875 3.0335 3.16688 2.25 4.375 2.25H30.625ZM4.375 0.5C1.95875 0.5 0 2.067 0 4V18C0 19.933 1.95875 21.5 4.375 21.5H9.84375C10.5323 21.5 11.1806 21.7593 11.5938 22.2L15.75 26.6333C16.625 27.5667 18.375 27.5667 19.25 26.6333L23.4062 22.2C23.8194 21.7593 24.4677 21.5 25.1562 21.5H30.625C33.0412 21.5 35 19.933 35 18V4C35 2.067 33.0412 0.5 30.625 0.5H4.375Z" fill="white"/>
<path d="M10.9375 11C10.9375 11.9665 9.95812 12.75 8.75 12.75C7.54188 12.75 6.5625 11.9665 6.5625 11C6.5625 10.0335 7.54188 9.25 8.75 9.25C9.95812 9.25 10.9375 10.0335 10.9375 11Z" fill="white"/>
<path d="M19.6875 11C19.6875 11.9665 18.7081 12.75 17.5 12.75C16.2919 12.75 15.3125 11.9665 15.3125 11C15.3125 10.0335 16.2919 9.25 17.5 9.25C18.7081 9.25 19.6875 10.0335 19.6875 11Z" fill="white"/>
<path d="M28.4375 11C28.4375 11.9665 27.4581 12.75 26.25 12.75C25.0419 12.75 24.0625 11.9665 24.0625 11C24.0625 10.0335 25.0419 9.25 26.25 9.25C27.4581 9.25 28.4375 10.0335 28.4375 11Z" fill="white"/>
</svg>
