<svg width="35" height="35" viewBox="0 0 35 35" fill="none" xmlns="http://www.w3.org/2000/svg">
<g id="clipboard2-data">
<g id="Union">
<path d="M20.7812 0C21.3853 0 21.875 0.489689 21.875 1.09375C21.875 1.69781 22.3647 2.1875 22.9688 2.1875C23.5728 2.1875 24.0625 2.67719 24.0625 3.28125V4.375C24.0625 4.97906 23.5728 5.46875 22.9688 5.46875H12.0312C11.4272 5.46875 10.9375 4.97906 10.9375 4.375V3.28125C10.9375 2.67719 11.4272 2.1875 12.0312 2.1875C12.6353 2.1875 13.125 1.69781 13.125 1.09375C13.125 0.489689 13.6147 0 14.2188 0H20.7812Z" fill="#001622"/>
<path d="M6.5625 5.46875C6.5625 4.86469 7.05219 4.375 7.65625 4.375H8.75C9.35406 4.375 9.84375 3.88531 9.84375 3.28125C9.84375 2.67719 9.35406 2.1875 8.75 2.1875H7.65625C5.84407 2.1875 4.375 3.65657 4.375 5.46875V31.7188C4.375 33.5309 5.84406 35 7.65625 35H27.3438C29.1559 35 30.625 33.5309 30.625 31.7188V5.46875C30.625 3.65657 29.1559 2.1875 27.3438 2.1875H26.25C25.6459 2.1875 25.1562 2.67719 25.1562 3.28125C25.1562 3.88531 25.6459 4.375 26.25 4.375H27.3438C27.9478 4.375 28.4375 4.86469 28.4375 5.46875V31.7188C28.4375 32.3228 27.9478 32.8125 27.3438 32.8125H7.65625C7.05219 32.8125 6.5625 32.3228 6.5625 31.7188V5.46875Z" fill="#001622"/>
<path d="M21.875 15.3125C21.875 14.1044 22.8544 13.125 24.0625 13.125C25.2706 13.125 26.25 14.1044 26.25 15.3125V26.25C26.25 27.4581 25.2706 28.4375 24.0625 28.4375C22.8544 28.4375 21.875 27.4581 21.875 26.25V15.3125Z" fill="#001622"/>
<path d="M8.75 24.0625C8.75 22.8544 9.72938 21.875 10.9375 21.875C12.1456 21.875 13.125 22.8544 13.125 24.0625V26.25C13.125 27.4581 12.1456 28.4375 10.9375 28.4375C9.72938 28.4375 8.75 27.4581 8.75 26.25V24.0625Z" fill="#001622"/>
<path d="M17.5 17.5C16.2919 17.5 15.3125 18.4794 15.3125 19.6875V26.25C15.3125 27.4581 16.2919 28.4375 17.5 28.4375C18.7081 28.4375 19.6875 27.4581 19.6875 26.25V19.6875C19.6875 18.4794 18.7081 17.5 17.5 17.5Z" fill="#001622"/>
</g>
</g>
</svg>
