<svg width="30" height="31" viewBox="0 0 30 31" fill="none" xmlns="http://www.w3.org/2000/svg">
<path d="M22.6547 17.1919C21.6918 19.2337 20.3885 21.2694 19.0532 23.0962C17.722 24.9173 16.3863 26.4939 15.3817 27.6163C15.2482 27.7654 15.1207 27.9064 15.0001 28.0386C14.8795 27.9064 14.752 27.7654 14.6185 27.6163C13.6138 26.4939 12.2782 24.9173 10.947 23.0962C9.6117 21.2694 8.30838 19.2337 7.34549 17.1919C6.37268 15.129 5.8126 13.196 5.8126 11.5385C5.8126 6.22803 9.92598 1.92308 15.0001 1.92308C20.0742 1.92308 24.1876 6.22803 24.1876 11.5385C24.1876 13.196 23.6275 15.129 22.6547 17.1919ZM15.0001 30.7692C15.0001 30.7692 26.0251 19.8341 26.0251 11.5385C26.0251 5.16595 21.089 0 15.0001 0C8.91116 0 3.9751 5.16595 3.9751 11.5385C3.9751 19.8341 15.0001 30.7692 15.0001 30.7692Z" fill="#003F62"/>
<path d="M15.0001 15.3846C12.9705 15.3846 11.3251 13.6626 11.3251 11.5385C11.3251 9.41429 12.9705 7.69231 15.0001 7.69231C17.0297 7.69231 18.6751 9.41429 18.6751 11.5385C18.6751 13.6626 17.0297 15.3846 15.0001 15.3846ZM15.0001 17.3077C18.0446 17.3077 20.5126 14.7247 20.5126 11.5385C20.5126 8.3522 18.0446 5.76923 15.0001 5.76923C11.9556 5.76923 9.4876 8.3522 9.4876 11.5385C9.4876 14.7247 11.9556 17.3077 15.0001 17.3077Z" fill="#003F62"/>
</svg>
