<svg width="28" height="29" viewBox="0 0 28 29" fill="none" xmlns="http://www.w3.org/2000/svg">
<path d="M14.5919 2.44741C14.3908 2.36397 14.1664 2.36397 13.9652 2.44741L3.89418 6.62502L14.2786 10.9326L24.6629 6.62502L14.5919 2.44741ZM26.0911 7.91742L15.1223 12.4674V26.3326L26.0911 21.7826V7.91742ZM13.4348 26.3326V12.4674L2.46606 7.91742V21.7826L13.4348 26.3326ZM13.3385 0.822575C13.942 0.572244 14.6152 0.572244 15.2186 0.822575L27.2482 5.8126C27.5685 5.94548 27.7786 6.26723 27.7786 6.62502V21.7826C27.7786 22.4982 27.3585 23.1417 26.7178 23.4074L14.5919 28.4374C14.3908 28.5209 14.1664 28.5209 13.9652 28.4374L1.83934 23.4074C1.19867 23.1417 0.778564 22.4982 0.778564 21.7826V6.62502C0.778564 6.26723 0.988617 5.94548 1.30895 5.8126L13.3385 0.822575Z" fill="white"/>
</svg>
