<svg width="19" height="19" viewBox="0 0 19 19" fill="none" xmlns="http://www.w3.org/2000/svg">
<path d="M13.2637 11.5276H12.4737L12.1937 11.2576C13.1737 10.1176 13.7637 8.63759 13.7637 7.02759C13.7637 3.43759 10.8537 0.527588 7.26367 0.527588C3.67367 0.527588 0.763672 3.43759 0.763672 7.02759C0.763672 10.6176 3.67367 13.5276 7.26367 13.5276C8.87367 13.5276 10.3537 12.9376 11.4937 11.9576L11.7637 12.2376V13.0276L16.7637 18.0176L18.2537 16.5276L13.2637 11.5276ZM7.26367 11.5276C4.77367 11.5276 2.76367 9.51759 2.76367 7.02759C2.76367 4.53759 4.77367 2.52759 7.26367 2.52759C9.75367 2.52759 11.7637 4.53759 11.7637 7.02759C11.7637 9.51759 9.75367 11.5276 7.26367 11.5276Z" fill="#666666"/>
</svg>
