<svg width="23" height="20" viewBox="0 0 23 20" fill="none" xmlns="http://www.w3.org/2000/svg">
<g id="search">
<path id="Union" d="M16.1557 12.7834C17.243 11.5049 17.8853 9.92661 17.8853 8.21875C17.8853 3.9558 13.8838 0.5 8.94775 0.5C4.01171 0.5 0.0102539 3.9558 0.0102539 8.21875C0.0102539 12.4817 4.01171 15.9375 8.94775 15.9375C10.9258 15.9375 12.7538 15.3825 14.2343 14.4431L14.2331 14.4438C14.2737 14.4913 14.3188 14.5368 14.3686 14.5798L19.663 19.1522C20.2 19.6159 21.0706 19.6159 21.6075 19.1522C22.1445 18.6884 22.1445 17.9366 21.6075 17.4728L16.3131 12.9004C16.2634 12.8574 16.2107 12.8184 16.1557 12.7834ZM16.5103 8.21875C16.5103 11.8259 13.1244 14.75 8.94775 14.75C4.7711 14.75 1.38525 11.8259 1.38525 8.21875C1.38525 4.61164 4.7711 1.6875 8.94775 1.6875C13.1244 1.6875 16.5103 4.61164 16.5103 8.21875Z" fill="#EDA415"/>
</g>
</svg>
