<svg width="34" height="27" viewBox="0 0 34 27" fill="none" xmlns="http://www.w3.org/2000/svg">
<path d="M0.778564 1.125C0.778564 0.641751 1.26825 0.25 1.87231 0.25H5.15356C5.65545 0.25 6.09293 0.52326 6.21466 0.912781L7.10129 3.75H32.4973C32.825 3.75 33.1354 3.86753 33.3432 4.07026C33.5509 4.27299 33.6341 4.53955 33.5698 4.7966L31.3823 13.5466C31.2841 13.9395 30.8648 14.2288 30.3646 14.2489L9.80904 15.0737L10.4363 17.75H29.2161C29.8201 17.75 30.3098 18.1418 30.3098 18.625C30.3098 19.1082 29.8201 19.5 29.2161 19.5H27.0286H11.7161H9.52856C9.00224 19.5 8.55054 19.2001 8.45355 18.7863L5.17831 4.8119L4.29959 2H1.87231C1.26825 2 0.778564 1.60825 0.778564 1.125ZM7.5652 5.5L9.40219 13.3378L29.4043 12.5352L31.1632 5.5H7.5652ZM11.7161 19.5C9.29982 19.5 7.34106 21.067 7.34106 23C7.34106 24.933 9.29982 26.5 11.7161 26.5C14.1323 26.5 16.0911 24.933 16.0911 23C16.0911 21.067 14.1323 19.5 11.7161 19.5ZM27.0286 19.5C24.6123 19.5 22.6536 21.067 22.6536 23C22.6536 24.933 24.6123 26.5 27.0286 26.5C29.4448 26.5 31.4036 24.933 31.4036 23C31.4036 21.067 29.4448 19.5 27.0286 19.5ZM11.7161 21.25C12.9242 21.25 13.9036 22.0335 13.9036 23C13.9036 23.9665 12.9242 24.75 11.7161 24.75C10.5079 24.75 9.52856 23.9665 9.52856 23C9.52856 22.0335 10.5079 21.25 11.7161 21.25ZM27.0286 21.25C28.2367 21.25 29.2161 22.0335 29.2161 23C29.2161 23.9665 28.2367 24.75 27.0286 24.75C25.8204 24.75 24.8411 23.9665 24.8411 23C24.8411 22.0335 25.8204 21.25 27.0286 21.25Z" fill="white"/>
</svg>
