<svg width="36" height="36" viewBox="0 0 36 36" fill="none" xmlns="http://www.w3.org/2000/svg">
<path d="M36 18C36 27.9411 27.9411 36 18 36C8.05888 36 0 27.9411 0 18C0 8.05888 8.05888 0 18 0C27.9411 0 36 8.05888 36 18ZM18.6451 13.2885C16.8944 14.0167 13.3953 15.5239 8.14793 17.8101C7.29584 18.1489 6.84948 18.4804 6.80884 18.8045C6.74017 19.3523 7.42616 19.568 8.3603 19.8618C8.48737 19.9017 8.61902 19.9431 8.754 19.987C9.67305 20.2857 10.9093 20.6352 11.552 20.6491C12.135 20.6617 12.7857 20.4214 13.5041 19.9281C18.4068 16.6186 20.9377 14.9458 21.0966 14.9097C21.2087 14.8843 21.364 14.8523 21.4692 14.9458C21.5745 15.0394 21.5641 15.2166 21.553 15.2641C21.485 15.5538 18.7923 18.0572 17.3988 19.3527C16.9644 19.7566 16.6562 20.0431 16.5932 20.1085C16.4521 20.2551 16.3083 20.3937 16.1701 20.527C15.3162 21.3501 14.676 21.9673 16.2055 22.9752C16.9406 23.4596 17.5287 23.8602 18.1155 24.2598C18.7564 24.6962 19.3955 25.1314 20.2225 25.6735C20.4332 25.8117 20.6344 25.9551 20.8304 26.0948C21.5762 26.6265 22.2462 27.1042 23.074 27.028C23.555 26.9837 24.0518 26.5315 24.3041 25.1826C24.9004 21.9948 26.0725 15.0878 26.3434 12.2415C26.3671 11.9922 26.3373 11.673 26.3133 11.533C26.2893 11.3929 26.2392 11.1933 26.0571 11.0455C25.8415 10.8705 25.5085 10.8336 25.3596 10.8362C24.6826 10.8481 23.6439 11.2093 18.6451 13.2885Z" fill="#24A1DE"/>
</svg>
