<svg width="110" height="110" viewBox="0 0 110 110" fill="none" xmlns="http://www.w3.org/2000/svg">
<g clip-path="url(#clip0_518_5440)">
<path d="M55 110C85.3757 110 110 85.3757 110 55C110 24.6243 85.3757 0 55 0C24.6243 0 0 24.6243 0 55C0 85.3757 24.6243 110 55 110Z" fill="#003F62"/>
<path d="M87 81C87 81.5304 86.7893 82.0391 86.4142 82.4142C86.0391 82.7893 85.5304 83 85 83H25C24.4696 83 23.9609 82.7893 23.5858 82.4142C23.2107 82.0391 23 81.5304 23 81V41C23 40.4696 23.2107 39.9609 23.5858 39.5858C23.9609 39.2107 24.4696 39 25 39H47V37C47 36.4696 47.2107 35.9609 47.5858 35.5858C47.9609 35.2107 48.4696 35 49 35H85C85.5304 35 86.0391 35.2107 86.4142 35.5858C86.7893 35.9609 87 36.4696 87 37V81Z" fill="#F0F1F1"/>
<path d="M49 35C48.4696 35 47.9609 35.2107 47.5858 35.5858C47.2107 35.9609 47 36.4696 47 37V39H25C24.4696 39 23.9609 39.2107 23.5858 39.5858C23.2107 39.9609 23 40.4696 23 41V81C23 81.315 23.079 81.609 23.209 81.874L70.083 35H49Z" fill="white"/>
<path d="M41 39H27V36C27 35.7348 27.1054 35.4804 27.2929 35.2929C27.4804 35.1054 27.7348 35 28 35H40C40.2652 35 40.5196 35.1054 40.7071 35.2929C40.8946 35.4804 41 35.7348 41 36V39Z" fill="white"/>
<path d="M83 46C83 46.2652 82.8946 46.5196 82.7071 46.7071C82.5196 46.8946 82.2652 47 82 47H72C71.7348 47 71.4804 46.8946 71.2929 46.7071C71.1054 46.5196 71 46.2652 71 46V40C71 39.7348 71.1054 39.4804 71.2929 39.2929C71.4804 39.1054 71.7348 39 72 39H82C82.2652 39 82.5196 39.1054 82.7071 39.2929C82.8946 39.4804 83 39.7348 83 40V46Z" fill="#40C9E7"/>
<path d="M33 47C34.1046 47 35 46.1046 35 45C35 43.8954 34.1046 43 33 43C31.8954 43 31 43.8954 31 45C31 46.1046 31.8954 47 33 47Z" fill="#5B5C5F"/>
<path d="M29 35H31V39H29V35ZM33 35H35V39H33V35ZM37 35H39V39H37V35Z" fill="#E2E4E5"/>
<path d="M23 51H87V79H23V51Z" fill="#3E3E3F"/>
<path d="M23 51V79H26.083L54.083 51H23Z" fill="#5B5C5F"/>
<path d="M59 79C67.8366 79 75 71.8366 75 63C75 54.1634 67.8366 47 59 47C50.1634 47 43 54.1634 43 63C43 71.8366 50.1634 79 59 79Z" fill="white"/>
<path d="M59 75C65.6274 75 71 69.6274 71 63C71 56.3726 65.6274 51 59 51C52.3726 51 47 56.3726 47 63C47 69.6274 52.3726 75 59 75Z" fill="#21B2D1"/>
<path d="M59 51C52.373 51 47 56.373 47 63C47 66.338 48.365 69.355 50.564 71.531L67.53 54.565C66.416 53.4343 65.088 52.5368 63.6235 51.9247C62.159 51.3127 60.5873 50.9983 59 51Z" fill="#40C9E7"/>
<path d="M39 69C39 69.5304 38.7893 70.0391 38.4142 70.4142C38.0391 70.7893 37.5304 71 37 71C36.4696 71 35.9609 70.7893 35.5858 70.4142C35.2107 70.0391 35 69.5304 35 69V65C35 64.4696 35.2107 63.9609 35.5858 63.5858C35.9609 63.2107 36.4696 63 37 63C37.5304 63 38.0391 63.2107 38.4142 63.5858C38.7893 63.9609 39 64.4696 39 65V69Z" fill="#818284"/>
</g>
<defs>
<clipPath id="clip0_518_5440">
<rect width="110" height="110" fill="white"/>
</clipPath>
</defs>
</svg>
