<svg width="106" height="110" viewBox="0 0 106 110" fill="none" xmlns="http://www.w3.org/2000/svg">
<path d="M53 110C82.2711 110 106 85.3757 106 55C106 24.6243 82.2711 0 53 0C23.7289 0 0 24.6243 0 55C0 85.3757 23.7289 110 53 110Z" fill="#003F62"/>
<path d="M93.4766 39.7344C93.3128 39.7346 93.1506 39.7062 92.9994 39.6509C92.8481 39.5956 92.7107 39.5145 92.5951 39.4121L88.0745 35.4189C87.8478 35.2116 87.7224 34.9341 87.7254 34.646C87.7284 34.358 87.8595 34.0825 88.0904 33.8789C88.3214 33.6753 88.6338 33.5599 88.9602 33.5575C89.2867 33.5551 89.6012 33.666 89.8359 33.8662L94.3515 37.8594C94.5254 38.013 94.6438 38.2087 94.6918 38.4217C94.7397 38.6347 94.7151 38.8554 94.6209 39.056C94.5268 39.2567 94.3674 39.4282 94.1628 39.5489C93.9582 39.6697 93.7177 39.7342 93.4716 39.7344H93.4766Z" fill="#ECBBA3"/>
<path d="M95.248 42.415C96.6325 42.415 97.7549 41.4241 97.7549 40.2017C97.7549 38.9792 96.6325 37.9883 95.248 37.9883C93.8636 37.9883 92.7412 38.9792 92.7412 40.2017C92.7412 41.4241 93.8636 42.415 95.248 42.415Z" fill="#7A6D79"/>
<path d="M79.0233 26.9697C78.8599 26.9698 78.698 26.9413 78.547 26.886C78.396 26.8307 78.2589 26.7496 78.1435 26.6475L73.6229 22.6543C73.504 22.5529 73.4092 22.4316 73.344 22.2976C73.2788 22.1635 73.2446 22.0193 73.2432 21.8735C73.2418 21.7276 73.2734 21.5829 73.3361 21.4479C73.3988 21.3129 73.4913 21.1903 73.6083 21.0872C73.7252 20.9841 73.8643 20.9026 74.0173 20.8474C74.1704 20.7922 74.3344 20.7645 74.4997 20.7658C74.665 20.7672 74.8284 20.7975 74.9802 20.8552C75.1321 20.9128 75.2695 20.9966 75.3843 21.1016L79.9082 25.0947C80.0814 25.2487 80.1991 25.4445 80.2466 25.6574C80.294 25.8703 80.2691 26.0908 80.1748 26.2912C80.0806 26.4916 79.9214 26.6629 79.7171 26.7837C79.5128 26.9044 79.2726 26.9691 79.0267 26.9697H79.0233Z" fill="#ECBBA3"/>
<path d="M72.7314 22.5254C74.1159 22.5254 75.2383 21.5344 75.2383 20.312C75.2383 19.0896 74.1159 18.0986 72.7314 18.0986C71.347 18.0986 70.2246 19.0896 70.2246 20.312C70.2246 21.5344 71.347 22.5254 72.7314 22.5254Z" fill="#7A6D79"/>
<path d="M71.9395 33.2305C71.7761 33.2308 71.6142 33.2026 71.4632 33.1475C71.3122 33.0925 71.1751 33.0116 71.0596 32.9097L66.534 28.9165C66.4151 28.8151 66.3203 28.6938 66.2552 28.5598C66.19 28.4257 66.1557 28.2815 66.1543 28.1357C66.153 27.9898 66.1846 27.8451 66.2472 27.7101C66.3099 27.5751 66.4024 27.4525 66.5194 27.3494C66.6364 27.2463 66.7754 27.1648 66.9285 27.1096C67.0815 27.0544 67.2455 27.0267 67.4108 27.028C67.5761 27.0294 67.7395 27.0598 67.8914 27.1174C68.0433 27.175 68.1806 27.2588 68.2954 27.3638L72.816 31.3555C72.9897 31.5089 73.1081 31.7043 73.1561 31.917C73.2042 32.1298 73.1798 32.3503 73.0861 32.5508C72.9923 32.7513 72.8334 32.9228 72.6294 33.0438C72.4253 33.1647 72.1853 33.2297 71.9395 33.2305Z" fill="#ECBBA3"/>
<path d="M65.6426 28.7876C67.0271 28.7876 68.1494 27.7966 68.1494 26.5742C68.1494 25.3518 67.0271 24.3608 65.6426 24.3608C64.2581 24.3608 63.1357 25.3518 63.1357 26.5742C63.1357 27.7966 64.2581 28.7876 65.6426 28.7876Z" fill="#7A6D79"/>
<path d="M86.3827 46.0039C86.2192 46.004 86.0574 45.9755 85.9064 45.9202C85.7554 45.8649 85.6182 45.7838 85.5028 45.6817L80.9822 41.6885C80.8634 41.5871 80.7686 41.4658 80.7034 41.3318C80.6382 41.1977 80.6039 41.0535 80.6026 40.9076C80.6012 40.7618 80.6328 40.6171 80.6955 40.4821C80.7582 40.3471 80.8507 40.2245 80.9676 40.1214C81.0846 40.0183 81.2237 39.9368 81.3767 39.8816C81.5298 39.8264 81.6937 39.7987 81.8591 39.8C82.0244 39.8014 82.1878 39.8317 82.3396 39.8894C82.4915 39.947 82.6289 40.0308 82.7437 40.1358L87.2643 44.1289C87.4375 44.2829 87.5552 44.4787 87.6026 44.6916C87.6501 44.9044 87.6251 45.125 87.5309 45.3254C87.4367 45.5258 87.2774 45.6971 87.0731 45.8178C86.8688 45.9386 86.6286 46.0033 86.3827 46.0039Z" fill="#ECBBA3"/>
<path d="M88.1592 48.6758C89.5437 48.6758 90.666 47.6848 90.666 46.4624C90.666 45.24 89.5437 44.249 88.1592 44.249C86.7747 44.249 85.6523 45.24 85.6523 46.4624C85.6523 47.6848 86.7747 48.6758 88.1592 48.6758Z" fill="#7A6D79"/>
<path d="M55.6467 53.4365L61.6033 58.6983C66.3697 62.9082 64.8639 70.0332 58.6981 72.4399C57.6343 72.8573 56.7483 73.5621 56.168 74.4526L49.2767 85.0112C44.9005 91.7158 34.5146 92.9214 28.3205 87.4546L19.1465 79.3584C12.9525 73.8872 14.3321 64.7129 21.914 60.8486L33.8671 54.7607C34.8777 54.2473 35.6762 53.4626 36.1465 52.521C38.8708 47.0747 46.9375 45.7446 51.7038 49.9546L55.6467 53.4365Z" fill="#FAE2C0"/>
<path d="M61.6032 58.6982L55.6466 53.4365L51.7037 49.959C51.6771 49.9341 51.6473 49.9121 51.619 49.8887L56.6228 54.3081C61.3891 58.5181 59.8833 65.6431 53.7175 68.0498C52.6544 68.466 51.7685 69.1692 51.1874 70.0581L44.2961 80.6167C39.9548 87.2583 29.7232 88.5078 23.5093 83.2109L28.3138 87.459C34.5078 92.9302 44.8937 91.7202 49.2699 85.0156L56.1679 74.4526C56.7499 73.5611 57.6383 72.8562 58.7046 72.4399C64.8638 70.0273 66.3695 62.9082 61.6032 58.6982Z" fill="#F3F8FB"/>
<path d="M90.8851 32.939L81.9983 40.7891C81.2551 41.4445 80.2768 41.8515 79.2308 41.9404C78.2108 42.0266 77.2543 42.416 76.5181 43.0449L76.4633 43.0918L51.0447 65.542L43.9558 59.2798L69.4259 36.7827C70.1371 36.1548 70.5909 35.3359 70.7159 34.4551L70.7242 34.3906C70.8491 33.5098 71.303 32.6908 72.0141 32.063L80.9524 24.1675C81.185 23.9616 81.4613 23.7983 81.7656 23.6868C82.0698 23.5754 82.396 23.518 82.7254 23.518C83.0549 23.518 83.3811 23.5754 83.6853 23.6868C83.9896 23.7983 84.2659 23.9616 84.4985 24.1675L90.8851 29.8086C91.3548 30.2241 91.6186 30.7869 91.6186 31.3738C91.6186 31.9606 91.3548 32.5235 90.8851 32.939Z" fill="#ECBBA3"/>
<path d="M90.8852 29.8086L84.4985 24.1675L84.472 24.1455L88.3949 27.6113C88.8646 28.0268 89.1284 28.5897 89.1284 29.1765C89.1284 29.7633 88.8646 30.3262 88.3949 30.7417L79.5081 38.5918C78.7649 39.2472 77.7866 39.6543 76.7406 39.7432C75.7206 39.8293 74.7641 40.2188 74.0279 40.8477L73.9731 40.8945L48.5562 63.3433L51.0464 65.5405L76.4634 43.0918L76.5182 43.0449C77.2543 42.416 78.2109 42.0266 79.2309 41.9404C80.2768 41.8515 81.2552 41.4445 81.9983 40.7891L90.8852 32.939C91.3548 32.5235 91.6186 31.9606 91.6186 31.3738C91.6186 30.7869 91.3548 30.2241 90.8852 29.8086Z" fill="#E8AD8C"/>
<path d="M43.0676 67.4258C42.8217 67.4252 42.5815 67.3605 42.3772 67.2397C42.1729 67.119 42.0136 66.9476 41.9194 66.7472C41.8252 66.5468 41.8002 66.3263 41.8476 66.1134C41.8951 65.9006 42.0128 65.7048 42.186 65.5508L72.0904 39.1382C72.2052 39.0332 72.3426 38.9495 72.4944 38.8918C72.6463 38.8342 72.8097 38.8038 72.975 38.8025C73.1403 38.8011 73.3043 38.8289 73.4574 38.884C73.6104 38.9392 73.7495 39.0207 73.8664 39.1238C73.9834 39.2269 74.0759 39.3496 74.1386 39.4846C74.2013 39.6196 74.2329 39.7642 74.2315 39.9101C74.2301 40.056 74.1959 40.2001 74.1307 40.3342C74.0655 40.4683 73.9707 40.5895 73.8518 40.6909L43.9475 67.0977C43.8328 67.2012 43.696 67.2835 43.5449 67.3398C43.3938 67.3962 43.2316 67.4254 43.0676 67.4258Z" fill="#FAE2C0"/>
<path d="M35.728 73.9092C35.4818 73.9093 35.241 73.845 35.0362 73.7243C34.8314 73.6037 34.6717 73.4322 34.5774 73.2315C34.483 73.0308 34.4582 72.81 34.5061 72.5968C34.554 72.3837 34.6725 72.1879 34.8465 72.0342L42.186 65.5508C42.2982 65.4378 42.4353 65.3463 42.5891 65.282C42.7429 65.2176 42.91 65.1817 43.0801 65.1766C43.2502 65.1715 43.4197 65.1971 43.5781 65.2521C43.7365 65.307 43.8804 65.39 44.0011 65.4959C44.1217 65.6018 44.2164 65.7285 44.2794 65.868C44.3424 66.0075 44.3723 66.1569 44.3673 66.307C44.3623 66.4571 44.3224 66.6047 44.2502 66.7407C44.178 66.8767 44.075 66.9982 43.9475 67.0977L36.6079 73.5869C36.4925 73.6891 36.3554 73.7702 36.2044 73.8255C36.0534 73.8808 35.8915 73.9092 35.728 73.9092ZM38.0921 78.0401C37.8462 78.0399 37.6058 77.9754 37.4014 77.8549C37.1969 77.7343 37.0375 77.5631 36.9432 77.3627C36.8489 77.1623 36.824 76.9417 36.8716 76.7289C36.9192 76.516 37.0371 76.3203 37.2105 76.1665L49.1952 65.5523C49.431 65.3611 49.7412 65.2575 50.0613 65.2629C50.3814 65.2682 50.6869 65.3822 50.9143 65.5811C51.1416 65.7801 51.2734 66.0486 51.2822 66.331C51.291 66.6135 51.1762 66.888 50.9616 67.0977L38.9753 77.7119C38.8599 77.8154 38.7225 77.8976 38.5709 77.954C38.4193 78.0103 38.2566 78.0395 38.0921 78.0401ZM31.3618 71.5493C31.1154 71.5501 30.8743 71.4863 30.6691 71.366C30.4638 71.2457 30.3038 71.0743 30.2091 70.8735C30.1145 70.6728 30.0896 70.4518 30.1376 70.2385C30.1855 70.0253 30.3042 69.8294 30.4786 69.6758L40.3931 60.8867C40.5076 60.7816 40.6448 60.6976 40.7966 60.6398C40.9483 60.5819 41.1116 60.5513 41.2769 60.5497C41.4422 60.5481 41.6062 60.5755 41.7594 60.6304C41.9125 60.6854 42.0517 60.7666 42.1689 60.8695C42.2861 60.9724 42.3789 61.0949 42.4418 61.2298C42.5048 61.3646 42.5367 61.5092 42.5356 61.6551C42.5346 61.801 42.5007 61.9452 42.4358 62.0793C42.3709 62.2135 42.2764 62.3349 42.1578 62.4365L32.2434 71.2256C32.1281 71.3284 31.9908 71.41 31.8394 71.4656C31.6881 71.5211 31.5257 71.5496 31.3618 71.5493Z" fill="#ECBBA3"/>
<path d="M45.6725 70.4507C49.6903 70.4507 52.9473 67.5742 52.9473 64.0259C52.9473 60.4776 49.6903 57.6011 45.6725 57.6011C41.6547 57.6011 38.3977 60.4776 38.3977 64.0259C38.3977 67.5742 41.6547 70.4507 45.6725 70.4507Z" fill="#7A6D79"/>
<path d="M50.8155 59.4805C50.3955 59.109 49.9255 58.7843 49.416 58.5137C50.2541 59.7412 50.6028 61.1808 50.4067 62.6033C50.2105 64.0259 49.4807 65.3497 48.3334 66.364C47.1861 67.3784 45.6872 68.025 44.0754 68.2009C42.4636 68.3768 40.8313 68.072 39.4385 67.335C39.9702 68.1133 40.6832 68.7832 41.5302 69.3002C42.3772 69.8173 43.339 70.1699 44.3519 70.3345C45.3648 70.4992 46.4058 70.4722 47.4061 70.2554C48.4063 70.0386 49.343 69.637 50.1542 69.0769C50.9654 68.5169 51.6326 67.8113 52.1117 67.0068C52.5908 66.2023 52.8708 65.3172 52.9333 64.4101C52.9959 63.5029 52.8394 62.5944 52.4743 61.7446C52.1092 60.8948 51.5438 60.1231 50.8155 59.4805Z" fill="#685E68"/>
<path d="M90.8853 32.939L86.4543 36.853L84.6945 38.4072L81.9984 40.7891C81.2553 41.4445 80.2769 41.8515 79.231 41.9404C78.211 42.0266 77.2544 42.416 76.5183 43.0449L69.4277 36.7827C70.1389 36.1548 70.5927 35.3359 70.7177 34.4551L70.726 34.3906C70.8509 33.5098 71.3048 32.6909 72.0159 32.063L74.7618 29.6357L76.5216 28.0815L80.9525 24.1675C81.1851 23.9616 81.4615 23.7983 81.7657 23.6868C82.07 23.5754 82.3962 23.518 82.7256 23.518C83.055 23.518 83.3812 23.5754 83.6855 23.6868C83.9897 23.7983 84.2661 23.9616 84.4986 24.1675L90.8853 29.8086C91.3549 30.2241 91.6187 30.7869 91.6187 31.3738C91.6187 31.9606 91.3549 32.5235 90.8853 32.939Z" fill="#7A6D79"/>
<path d="M90.8851 29.8086L84.4984 24.1675L84.4719 24.1455L88.3948 27.6113C88.8645 28.0268 89.1283 28.5897 89.1283 29.1765C89.1283 29.7633 88.8645 30.3262 88.3948 30.7417L79.508 38.5918C78.7648 39.2472 77.7865 39.6543 76.7405 39.7432C75.7205 39.8293 74.764 40.2188 74.0278 40.8477L76.5181 43.0449C77.2542 42.416 78.2108 42.0266 79.2308 41.9404C80.2767 41.8515 81.2551 41.4445 81.9982 40.7891L84.6943 38.4072L86.3445 36.9497L90.8851 32.939C91.3547 32.5235 91.6185 31.9606 91.6185 31.3738C91.6185 30.7869 91.3547 30.2241 90.8851 29.8086Z" fill="#685E68"/>
<path d="M86.4542 36.853L84.6945 38.4072L84.6928 38.4058L74.7634 29.6357L76.5215 28.0815H76.5232L86.4542 36.853Z" fill="#ECBBA3"/>
<path d="M35.1039 78.377L29.4394 73.3613C29.212 73.1607 29.0316 72.9225 28.9086 72.6604C28.7855 72.3982 28.7222 72.1172 28.7222 71.8335C28.7222 71.5498 28.7855 71.2688 28.9086 71.0066C29.0316 70.7445 29.212 70.5063 29.4394 70.3057C29.6661 70.105 29.9355 69.9458 30.232 69.8372C30.5286 69.7286 30.8465 69.6727 31.1676 69.6727C31.4887 69.6727 31.8067 69.7286 32.1032 69.8372C32.3998 69.9458 32.6691 70.105 32.8959 70.3057L38.5703 75.314C38.7989 75.5147 38.9803 75.7534 39.1041 76.0162C39.2279 76.279 39.2917 76.5608 39.2917 76.8455C39.2917 77.1301 39.2279 77.4119 39.1041 77.6747C38.9803 77.9375 38.7989 78.1762 38.5703 78.377C38.3433 78.5787 38.0733 78.7389 37.7758 78.8482C37.4783 78.9575 37.1593 79.0137 36.8371 79.0137C36.5148 79.0137 36.1958 78.9575 35.8983 78.8482C35.6009 78.7389 35.3309 78.5787 35.1039 78.377Z" fill="#7A6D79"/>
<path d="M38.5702 75.314L32.8908 70.3057L32.8643 70.2837L36.08 73.1167C36.5193 73.5224 36.7623 74.0632 36.7576 74.6243C36.7529 75.1855 36.5007 75.7229 36.0546 76.1229C35.6084 76.5228 35.0034 76.7537 34.3676 76.7668C33.7318 76.7799 33.1152 76.574 32.6484 76.1929L35.1038 78.377C35.3317 78.5778 35.6023 78.737 35.9 78.8456C36.1976 78.9542 36.5167 79.01 36.8388 79.0098C37.1609 79.0096 37.4798 78.9534 37.7773 78.8444C38.0748 78.7355 38.3451 78.5759 38.5727 78.3748C38.8003 78.1736 38.9808 77.9349 39.1039 77.6723C39.2269 77.4096 39.2901 77.1281 39.2899 76.8439C39.2897 76.5597 39.226 76.2783 39.1025 76.0158C38.979 75.7533 38.7981 75.5148 38.5702 75.314Z" fill="#685E68"/>
</svg>
