<svg width="365" height="448" viewBox="0 0 365 448" fill="none" xmlns="http://www.w3.org/2000/svg">
<path d="M76.7139 355.744C76.5007 355.743 76.2962 355.653 76.1455 355.491C75.9948 355.329 75.9101 355.11 75.9101 354.881V348.147C75.9101 344.428 74.5323 340.861 72.0799 338.232C69.6274 335.602 66.3011 334.124 62.8328 334.124C59.3645 334.124 56.0382 335.602 53.5858 338.232C51.1333 340.861 49.7555 344.428 49.7555 348.147V354.881C49.7555 355.11 49.6708 355.329 49.52 355.491C49.3691 355.653 49.1646 355.744 48.9512 355.744C48.7379 355.744 48.5334 355.653 48.3825 355.491C48.2317 355.329 48.147 355.11 48.147 354.881V348.147C48.1359 346.071 48.5076 344.014 49.2407 342.093C49.9738 340.172 51.0538 338.426 52.4185 336.954C53.7833 335.482 55.406 334.314 57.1932 333.517C58.9804 332.72 60.897 332.31 62.8326 332.31C64.7682 332.31 66.6847 332.72 68.472 333.517C70.2592 334.314 71.8818 335.482 73.2466 336.954C74.6114 338.426 75.6914 340.172 76.4245 342.093C77.1575 344.014 77.5292 346.071 77.5182 348.147V354.881C77.5182 355.11 77.4335 355.329 77.2826 355.491C77.1318 355.653 76.9272 355.744 76.7139 355.744Z" fill="#494945"/>
<path d="M95.7615 349.062H78.8396V446.993H95.7615V349.062Z" fill="#EDA415"/>
<path opacity="0.21" d="M95.7615 349.062H78.8396V446.993H95.7615V349.062Z" fill="#0A0A0A"/>
<path d="M78.8402 349.062H12.9773V446.993H78.8402V349.062Z" fill="#EDA415"/>
<path d="M59.7903 355.744C59.5771 355.743 59.3727 355.653 59.2219 355.491C59.0712 355.329 58.9865 355.11 58.9865 354.881V348.147C58.997 346.298 58.6664 344.466 58.0138 342.755C57.3613 341.043 56.3997 339.488 55.1843 338.176C53.9689 336.865 52.5237 335.825 50.9319 335.115C49.3401 334.405 47.633 334.039 45.909 334.039C44.1849 334.039 42.4779 334.405 40.8861 335.115C39.2943 335.825 37.8491 336.865 36.6337 338.176C35.4183 339.488 34.4567 341.043 33.8041 342.755C33.1516 344.466 32.821 346.298 32.8315 348.147V354.881C32.8341 354.996 32.8152 355.111 32.776 355.218C32.7368 355.325 32.6779 355.422 32.603 355.505C32.5281 355.587 32.4386 355.652 32.3397 355.697C32.2409 355.742 32.1347 355.765 32.0274 355.765C31.9202 355.765 31.814 355.742 31.7151 355.697C31.6163 355.652 31.5267 355.587 31.4518 355.505C31.3769 355.422 31.3181 355.325 31.2789 355.218C31.2396 355.111 31.2208 354.996 31.2234 354.881V348.147C31.2123 346.071 31.584 344.014 32.3171 342.093C33.0502 340.172 34.1302 338.426 35.495 336.954C36.8597 335.482 38.4824 334.314 40.2696 333.517C42.0568 332.72 43.9734 332.31 45.909 332.31C47.8446 332.31 49.7612 332.72 51.5484 333.517C53.3356 334.314 54.9583 335.482 56.323 336.954C57.6878 338.426 58.7678 340.172 59.5009 342.093C60.2339 344.014 60.6056 346.071 60.5946 348.147V354.881C60.5946 355.11 60.5099 355.329 60.359 355.491C60.2082 355.653 60.0036 355.744 59.7903 355.744Z" fill="#494945"/>
<path opacity="0.11" d="M78.8396 349.062L87.3005 358.833L95.761 349.062H78.8396Z" fill="#0A0A0A"/>
<path opacity="0.11" d="M78.8396 446.993L87.3005 437.222L95.761 446.993H78.8396Z" fill="#0A0A0A"/>
<path d="M263.89 0H123.741C112.147 0 102.749 10.0779 102.749 22.5097V375.778C102.749 388.21 112.147 398.288 123.741 398.288H263.89C275.483 398.288 284.882 388.21 284.882 375.778V22.5097C284.882 10.0779 275.483 0 263.89 0Z" fill="#292A2E"/>
<path d="M263.823 7.0289H123.807C115.846 7.0289 109.392 13.9491 109.392 22.4856V375.277C109.392 383.814 115.846 390.734 123.807 390.734H263.823C271.785 390.734 278.238 383.814 278.238 375.277V22.4856C278.238 13.9491 271.785 7.0289 263.823 7.0289Z" fill="white"/>
<path d="M159.234 4.12296H228.394V11.7965C228.394 13.997 227.579 16.1073 226.128 17.6635C224.677 19.2196 222.709 20.0941 220.657 20.0947H166.973C164.921 20.0947 162.952 19.2204 161.501 17.6642C160.049 16.108 159.234 13.9973 159.234 11.7965V4.12296Z" fill="#292A2E"/>
<g opacity="0.15">
<path d="M263.079 125.492H124.55C122.635 125.49 120.799 124.674 119.445 123.222C118.092 121.77 117.33 119.802 117.328 117.749V39.3895C117.33 37.3364 118.092 35.3681 119.445 33.9164C120.799 32.4646 122.635 31.648 124.55 31.6457H263.079C264.994 31.648 266.829 32.4646 268.183 33.9164C269.537 35.3681 270.299 37.3364 270.301 39.3895V117.749C270.299 119.802 269.537 121.77 268.183 123.222C266.829 124.674 264.994 125.49 263.079 125.492ZM124.55 32.6706C122.889 32.6729 121.296 33.3815 120.122 34.6411C118.947 35.9007 118.287 37.6083 118.285 39.3895V117.749C118.286 119.53 118.947 121.238 120.121 122.497C121.296 123.757 122.889 124.465 124.55 124.468H263.079C264.74 124.466 266.333 123.757 267.508 122.498C268.683 121.238 269.343 119.53 269.345 117.749V39.3895C269.343 37.6081 268.682 35.9003 267.508 34.6407C266.333 33.3811 264.74 32.6726 263.079 32.6706H124.55Z" fill="#292A2E"/>
</g>
<g opacity="0.43">
<path d="M197.076 53.6528C199.555 53.6528 201.564 51.4983 201.564 48.8406C201.564 46.1829 199.555 44.0284 197.076 44.0284C194.598 44.0284 192.589 46.1829 192.589 48.8406C192.589 51.4983 194.598 53.6528 197.076 53.6528Z" fill="#003F62"/>
<path d="M211.413 53.6528C213.892 53.6528 215.901 51.4983 215.901 48.8406C215.901 46.1829 213.892 44.0284 211.413 44.0284C208.935 44.0284 206.925 46.1829 206.925 48.8406C206.925 51.4983 208.935 53.6528 211.413 53.6528Z" fill="#003F62"/>
<path d="M225.75 53.6528C228.228 53.6528 230.237 51.4983 230.237 48.8406C230.237 46.1829 228.228 44.0284 225.75 44.0284C223.271 44.0284 221.262 46.1829 221.262 48.8406C221.262 51.4983 223.271 53.6528 225.75 53.6528Z" fill="#003F62"/>
<path d="M240.086 53.6528C242.564 53.6528 244.574 51.4983 244.574 48.8406C244.574 46.1829 242.564 44.0284 240.086 44.0284C237.607 44.0284 235.598 46.1829 235.598 48.8406C235.598 51.4983 237.607 53.6528 240.086 53.6528Z" fill="#003F62"/>
<path d="M254.422 53.6528C256.901 53.6528 258.91 51.4983 258.91 48.8406C258.91 46.1829 256.901 44.0284 254.422 44.0284C251.944 44.0284 249.935 46.1829 249.935 48.8406C249.935 51.4983 251.944 53.6528 254.422 53.6528Z" fill="#003F62"/>
</g>
<g opacity="0.15">
<path d="M258.91 63.728H193.815V64.7528H258.91V63.728Z" fill="#292A2E"/>
</g>
<g opacity="0.15">
<path d="M258.91 73.9765H193.815V75.0013H258.91V73.9765Z" fill="#292A2E"/>
</g>
<g opacity="0.15">
<path d="M228.396 84.2249H193.815V85.2498H228.396V84.2249Z" fill="#292A2E"/>
</g>
<g opacity="0.15">
<path d="M259.388 112.18H237.156V104.588H259.388V112.18ZM238.112 111.155H258.432V105.613H238.112V111.155Z" fill="#292A2E"/>
</g>
<path d="M228.251 105.1H206.975V111.667H228.251V105.1Z" fill="#EDA415"/>
<path d="M176.794 57.5964C175.761 54.7637 172.33 53.0235 166.017 50.8959C165.817 50.8288 165.197 50.6658 164.569 50.5054C164.378 50.4566 164.179 50.4538 163.987 50.4972C163.795 50.5407 163.614 50.6293 163.457 50.7567C163.301 50.8842 163.173 51.0472 163.082 51.2341C162.992 51.4211 162.941 51.6272 162.933 51.8378C162.933 51.8378 162.169 55.4073 156.552 55.4073C149.909 55.4073 149.001 51.8378 149.001 51.8378C148.994 51.6272 148.943 51.4211 148.852 51.2341C148.762 51.0472 148.634 50.8842 148.477 50.7567C148.321 50.6293 148.14 50.5407 147.948 50.4972C147.755 50.4538 147.556 50.4566 147.365 50.5054C146.737 50.6658 146.117 50.8288 145.917 50.8959C139.604 53.0235 136.173 54.7637 135.141 57.5964C131.515 67.5374 125.993 98.8034 125.993 98.8034L134.217 101.116L141.132 74.8804C142.119 78.8153 142.433 90.8342 142.433 90.8342H150.311H161.623H169.29C169.29 90.8342 169.815 78.8153 170.802 74.8804L177.717 101.116L185.941 98.8034C185.941 98.8034 180.419 67.5374 176.794 57.5964Z" fill="#003F62"/>
<path opacity="0.48" d="M176.794 57.5964C175.761 54.7637 172.33 53.0235 166.017 50.8959C165.817 50.8288 165.197 50.6658 164.569 50.5054C164.378 50.4566 164.179 50.4538 163.987 50.4972C163.795 50.5407 163.614 50.6293 163.457 50.7567C163.301 50.8842 163.173 51.0472 163.082 51.2341C162.992 51.4211 162.941 51.6272 162.933 51.8378C162.933 51.8378 162.169 55.4073 156.552 55.4073C149.909 55.4073 149.001 51.8378 149.001 51.8378C148.994 51.6272 148.943 51.4211 148.852 51.2341C148.762 51.0472 148.634 50.8842 148.477 50.7567C148.321 50.6293 148.14 50.5407 147.948 50.4972C147.755 50.4538 147.556 50.4566 147.365 50.5054C146.737 50.6658 146.117 50.8288 145.917 50.8959C139.604 53.0235 136.173 54.7637 135.141 57.5964C131.515 67.5374 125.993 98.8034 125.993 98.8034L134.217 101.116L141.132 74.8804C142.119 78.8153 142.433 90.8342 142.433 90.8342H150.311H161.623H169.29C169.29 90.8342 169.815 78.8153 170.802 74.8804L177.717 101.116L185.941 98.8034C185.941 98.8034 180.419 67.5374 176.794 57.5964Z" fill="white"/>
<g opacity="0.15">
<path d="M263.079 235.833H124.55C122.635 235.831 120.799 235.015 119.446 233.563C118.092 232.111 117.33 230.143 117.328 228.09V149.73C117.33 147.677 118.092 145.709 119.446 144.258C120.8 142.806 122.635 141.99 124.55 141.987H263.079C264.994 141.99 266.829 142.806 268.183 144.258C269.537 145.709 270.299 147.677 270.301 149.73V228.09C270.299 230.143 269.537 232.111 268.183 233.563C266.829 235.015 264.994 235.831 263.079 235.833ZM124.55 143.012C122.889 143.014 121.296 143.723 120.122 144.982C118.948 146.242 118.287 147.949 118.285 149.73V228.09C118.287 229.871 118.947 231.579 120.122 232.838C121.296 234.098 122.889 234.806 124.55 234.809H263.079C264.74 234.807 266.333 234.098 267.508 232.839C268.682 231.579 269.343 229.872 269.345 228.09V149.73C269.343 147.949 268.682 146.241 267.508 144.981C266.333 143.722 264.74 143.013 263.079 143.011L124.55 143.012Z" fill="#292A2E"/>
</g>
<g opacity="0.43">
<path d="M197.076 163.994C199.555 163.994 201.564 161.84 201.564 159.182C201.564 156.525 199.555 154.37 197.076 154.37C194.598 154.37 192.589 156.525 192.589 159.182C192.589 161.84 194.598 163.994 197.076 163.994Z" fill="#003F62"/>
<path d="M211.413 163.994C213.892 163.994 215.901 161.84 215.901 159.182C215.901 156.525 213.892 154.37 211.413 154.37C208.935 154.37 206.925 156.525 206.925 159.182C206.925 161.84 208.935 163.994 211.413 163.994Z" fill="#003F62"/>
<path d="M225.75 163.994C228.228 163.994 230.237 161.84 230.237 159.182C230.237 156.525 228.228 154.37 225.75 154.37C223.271 154.37 221.262 156.525 221.262 159.182C221.262 161.84 223.271 163.994 225.75 163.994Z" fill="#003F62"/>
<path d="M240.086 163.994C242.564 163.994 244.574 161.84 244.574 159.182C244.574 156.525 242.564 154.37 240.086 154.37C237.607 154.37 235.598 156.525 235.598 159.182C235.598 161.84 237.607 163.994 240.086 163.994Z" fill="#003F62"/>
<path d="M254.422 163.994C256.901 163.994 258.91 161.84 258.91 159.182C258.91 156.525 256.901 154.37 254.422 154.37C251.944 154.37 249.935 156.525 249.935 159.182C249.935 161.84 251.944 163.994 254.422 163.994Z" fill="#003F62"/>
</g>
<g opacity="0.15">
<path d="M258.91 174.069H193.815V175.094H258.91V174.069Z" fill="#292A2E"/>
</g>
<g opacity="0.15">
<path d="M258.91 184.318H193.815V185.342H258.91V184.318Z" fill="#292A2E"/>
</g>
<g opacity="0.15">
<path d="M228.396 194.566H193.815V195.591H228.396V194.566Z" fill="#292A2E"/>
</g>
<g opacity="0.15">
<path d="M259.388 222.521H237.156V214.929H259.388V222.521ZM238.112 221.496H258.432V215.954H238.112V221.496Z" fill="#292A2E"/>
</g>
<path d="M228.251 215.442H206.975V222.009H228.251V215.442Z" fill="#EDA415"/>
<path opacity="0.48" d="M176.418 172.291C174.868 170.234 171.452 168.922 167.461 167.882C165.839 167.46 164.74 167.301 164.74 167.301C163.456 170.791 159.486 173.317 155.987 173.318H155.744C152.245 173.318 148.48 170.791 147.195 167.301C147.195 167.301 146.096 167.459 144.471 167.882C140.48 168.922 137.064 170.234 135.514 172.291C133.132 175.451 129.797 187.347 129.797 187.347L139.465 191.666C139.54 191.882 139.613 192.098 139.685 192.314C139.736 192.469 139.787 192.624 139.838 192.778C139.833 192.763 139.828 192.748 139.823 192.733C139.835 192.768 139.847 192.805 139.858 192.842C141.513 198.082 142.661 203.491 143.283 208.983C143.325 208.969 168.604 208.969 168.645 208.983C169.268 203.491 170.416 198.082 172.071 192.842C172.083 192.805 172.094 192.769 172.107 192.733C172.152 192.593 172.198 192.454 172.244 192.314C172.316 192.098 172.39 191.882 172.464 191.666L182.132 187.347C182.132 187.347 178.801 175.454 176.418 172.291Z" fill="white"/>
<path d="M176.418 172.291C174.868 170.234 171.452 168.922 167.461 167.882C165.839 167.46 164.74 167.301 164.74 167.301C163.456 170.791 159.486 173.317 155.987 173.318H155.744C152.245 173.318 148.48 170.791 147.195 167.301C147.195 167.301 146.096 167.459 144.471 167.882C140.48 168.922 137.064 170.234 135.514 172.291C133.132 175.451 129.797 187.347 129.797 187.347L139.465 191.666C139.54 191.882 139.613 192.098 139.685 192.314C139.736 192.469 139.787 192.624 139.838 192.778C139.833 192.763 139.828 192.748 139.823 192.733C139.835 192.768 139.847 192.805 139.858 192.842C141.513 198.082 142.661 203.491 143.283 208.983C143.325 208.969 168.604 208.969 168.645 208.983C169.268 203.491 170.416 198.082 172.071 192.842C172.083 192.805 172.094 192.769 172.107 192.733C172.152 192.593 172.198 192.454 172.244 192.314C172.316 192.098 172.39 191.882 172.464 191.666L182.132 187.347C182.132 187.347 178.801 175.454 176.418 172.291Z" fill="#003F62"/>
<path opacity="0.48" d="M176.418 172.291C174.868 170.234 171.452 168.922 167.461 167.882C165.839 167.46 164.74 167.301 164.74 167.301C163.456 170.791 159.486 173.317 155.987 173.318H155.744C152.245 173.318 148.48 170.791 147.195 167.301C147.195 167.301 146.096 167.459 144.471 167.882C140.48 168.922 137.064 170.234 135.514 172.291C133.132 175.451 129.797 187.347 129.797 187.347L139.465 191.666C139.54 191.882 139.613 192.098 139.685 192.314C139.736 192.469 139.787 192.624 139.838 192.778C139.833 192.763 139.828 192.748 139.823 192.733C139.835 192.768 139.847 192.805 139.858 192.842C141.513 198.082 142.661 203.491 143.283 208.983C143.325 208.969 168.604 208.969 168.645 208.983C169.268 203.491 170.416 198.082 172.071 192.842C172.083 192.805 172.094 192.769 172.107 192.733C172.152 192.593 172.198 192.454 172.244 192.314C172.316 192.098 172.39 191.882 172.464 191.666L182.132 187.347C182.132 187.347 178.801 175.454 176.418 172.291Z" fill="white"/>
<g opacity="0.15">
<path d="M263.079 344.637H124.55C122.635 344.635 120.799 343.818 119.445 342.366C118.092 340.915 117.33 338.946 117.328 336.893V258.534C117.33 256.481 118.092 254.513 119.446 253.061C120.799 251.609 122.635 250.793 124.55 250.791H263.079C264.994 250.793 266.829 251.609 268.183 253.061C269.537 254.513 270.299 256.481 270.301 258.534V336.893C270.299 338.946 269.537 340.915 268.183 342.366C266.829 343.818 264.994 344.635 263.079 344.637ZM124.55 251.815C122.888 251.818 121.296 252.526 120.121 253.785C118.947 255.045 118.286 256.753 118.284 258.534V336.893C118.285 338.675 118.946 340.382 120.121 341.642C121.296 342.902 122.888 343.61 124.55 343.613H263.079C264.74 343.61 266.333 342.902 267.508 341.642C268.683 340.382 269.343 338.675 269.345 336.893V258.534C269.343 256.753 268.682 255.045 267.508 253.785C266.333 252.526 264.74 251.818 263.079 251.815H124.55Z" fill="#292A2E"/>
</g>
<g opacity="0.43">
<path d="M197.076 272.797C199.555 272.797 201.564 270.643 201.564 267.985C201.564 265.327 199.555 263.173 197.076 263.173C194.598 263.173 192.589 265.327 192.589 267.985C192.589 270.643 194.598 272.797 197.076 272.797Z" fill="#003F62"/>
<path d="M211.413 272.797C213.892 272.797 215.901 270.643 215.901 267.985C215.901 265.327 213.892 263.173 211.413 263.173C208.935 263.173 206.925 265.327 206.925 267.985C206.925 270.643 208.935 272.797 211.413 272.797Z" fill="#003F62"/>
<path d="M225.75 272.797C228.228 272.797 230.237 270.643 230.237 267.985C230.237 265.327 228.228 263.173 225.75 263.173C223.271 263.173 221.262 265.327 221.262 267.985C221.262 270.643 223.271 272.797 225.75 272.797Z" fill="#003F62"/>
<path d="M240.086 272.797C242.564 272.797 244.574 270.643 244.574 267.985C244.574 265.327 242.564 263.173 240.086 263.173C237.607 263.173 235.598 265.327 235.598 267.985C235.598 270.643 237.607 272.797 240.086 272.797Z" fill="#003F62"/>
<path d="M254.422 272.797C256.901 272.797 258.91 270.643 258.91 267.985C258.91 265.327 256.901 263.173 254.422 263.173C251.944 263.173 249.935 265.327 249.935 267.985C249.935 270.643 251.944 272.797 254.422 272.797Z" fill="#003F62"/>
</g>
<g opacity="0.15">
<path d="M258.91 282.872H193.815V283.897H258.91V282.872Z" fill="#292A2E"/>
</g>
<g opacity="0.15">
<path d="M258.91 293.121H193.815V294.146H258.91V293.121Z" fill="#292A2E"/>
</g>
<g opacity="0.15">
<path d="M228.396 303.369H193.815V304.394H228.396V303.369Z" fill="#292A2E"/>
</g>
<g opacity="0.15">
<path d="M259.388 331.325H237.156V323.733H259.388V331.325ZM238.112 330.3H258.432V324.757H238.112V330.3Z" fill="#292A2E"/>
</g>
<path d="M228.251 324.245H206.975V330.812H228.251V324.245Z" fill="#EDA415"/>
<path opacity="0.48" d="M169.29 324.752C169.546 324.751 169.799 324.688 170.029 324.567C170.259 324.446 170.46 324.271 170.617 324.054C170.775 323.838 170.884 323.586 170.938 323.317C170.991 323.049 170.987 322.771 170.925 322.504C169.208 314.852 169.078 300.446 170.559 294.254L172.198 287.403L172.195 287.371C172.224 287.136 172.202 286.898 172.133 286.673C172.063 286.449 171.947 286.244 171.793 286.075C165.596 279.255 166.412 272.25 166.412 272.25H163.741C163.914 273.901 163.814 275.571 163.443 277.184C162.774 280.015 160.994 283.157 156.481 283.912C155.047 284.141 153.589 284.141 152.155 283.912C147.643 283.157 145.862 280.015 145.193 277.184C144.823 275.571 144.722 273.901 144.896 272.25H142.226C142.226 272.25 143.041 279.254 136.843 286.074C136.689 286.244 136.573 286.448 136.504 286.673C136.434 286.897 136.413 287.135 136.441 287.37L136.419 287.402L138.058 294.254C139.54 300.445 139.409 314.853 137.692 322.504C137.631 322.77 137.626 323.048 137.68 323.317C137.733 323.585 137.842 323.837 138 324.054C138.157 324.27 138.358 324.446 138.588 324.566C138.818 324.687 139.071 324.75 139.327 324.751L169.29 324.752Z" fill="white"/>
<path d="M169.29 324.752C169.546 324.751 169.799 324.688 170.029 324.567C170.259 324.446 170.46 324.271 170.617 324.054C170.775 323.838 170.884 323.586 170.938 323.317C170.991 323.049 170.987 322.771 170.925 322.504C169.208 314.852 169.078 300.446 170.559 294.254L172.198 287.403L172.195 287.371C172.224 287.136 172.202 286.898 172.133 286.673C172.063 286.449 171.947 286.244 171.793 286.075C165.596 279.255 166.412 272.25 166.412 272.25H163.741C163.914 273.901 163.814 275.571 163.443 277.184C162.774 280.015 160.994 283.157 156.481 283.912C155.047 284.141 153.589 284.141 152.155 283.912C147.643 283.157 145.862 280.015 145.193 277.184C144.823 275.571 144.722 273.901 144.896 272.25H142.226C142.226 272.25 143.041 279.254 136.843 286.074C136.689 286.244 136.573 286.448 136.504 286.673C136.434 286.897 136.413 287.135 136.441 287.37L136.419 287.402L138.058 294.254C139.54 300.445 139.409 314.853 137.692 322.504C137.631 322.77 137.626 323.048 137.68 323.317C137.733 323.585 137.842 323.837 138 324.054C138.157 324.27 138.358 324.446 138.588 324.566C138.818 324.687 139.071 324.75 139.327 324.751L169.29 324.752Z" fill="#003F62"/>
<path opacity="0.48" d="M169.29 324.752C169.546 324.751 169.799 324.688 170.029 324.567C170.259 324.446 170.46 324.271 170.617 324.054C170.775 323.838 170.884 323.586 170.938 323.317C170.991 323.049 170.987 322.771 170.925 322.504C169.208 314.852 169.078 300.446 170.559 294.254L172.198 287.403L172.195 287.371C172.224 287.136 172.202 286.898 172.133 286.673C172.063 286.449 171.947 286.244 171.793 286.075C165.596 279.255 166.412 272.25 166.412 272.25H163.741C163.914 273.901 163.814 275.571 163.443 277.184C162.774 280.015 160.994 283.157 156.481 283.912C155.047 284.141 153.589 284.141 152.155 283.912C147.643 283.157 145.862 280.015 145.193 277.184C144.823 275.571 144.722 273.901 144.896 272.25H142.226C142.226 272.25 143.041 279.254 136.843 286.074C136.689 286.244 136.573 286.448 136.504 286.673C136.434 286.897 136.413 287.135 136.441 287.37L136.419 287.402L138.058 294.254C139.54 300.445 139.409 314.853 137.692 322.504C137.631 322.77 137.626 323.048 137.68 323.317C137.733 323.585 137.842 323.837 138 324.054C138.157 324.27 138.358 324.446 138.588 324.566C138.818 324.687 139.071 324.75 139.327 324.751L169.29 324.752Z" fill="white"/>
<path d="M324.032 425.329C324.032 425.329 321.875 437.32 311.403 437.99C300.931 438.66 303.202 447.604 303.202 447.604H343.219V426.165L324.032 425.329Z" fill="#003F62"/>
<path d="M336.376 206.56C336.376 206.56 336.25 202.955 336.277 211.133C336.376 241.637 336.869 276.479 338.075 296.869C340.014 329.645 344.986 432.983 344.986 432.983L318.69 432.746L293.203 205.321L336.376 206.56Z" fill="#262626"/>
<path d="M306.681 242.53C306.681 242.53 305.591 264.666 305.39 269.863C304.923 281.882 304.76 294.326 304.76 308.435L300.616 271.448C300.616 271.448 303.647 259.858 306.681 242.53Z" fill="#0A0A0A"/>
<path d="M277.218 425.329C277.218 425.329 275.061 437.32 264.589 437.99C254.117 438.66 256.388 447.604 256.388 447.604H296.406V426.165L277.218 425.329Z" fill="#003F62"/>
<path d="M264.486 208.929C264.486 208.929 262.157 313.184 262.498 318.28L272.277 432.191L298.139 432.704L295.619 314.158C295.619 314.158 297.396 281.458 304.764 251.093C308.534 235.508 310.803 219.55 311.536 203.469L264.486 208.929Z" fill="#262626"/>
<path d="M336.661 206.558L336.747 206.563C336.747 206.563 336.685 204.784 336.661 206.558Z" fill="#333333"/>
<path d="M260.784 151.062C261.327 157.894 263.965 200.516 264.486 208.931H336.348C336.755 201.341 338.577 168.155 340.116 153.313C341.586 139.151 344.469 132.06 342.356 127.874C338.903 121.031 329.466 117.076 323.032 116.142C319.103 115.572 313.194 115.163 313.194 115.163C313.194 115.163 312.693 126.015 300.761 126.62C284.52 127.44 285.604 115.162 285.524 115.162C282.893 115.162 267.572 116.489 264.185 119.285C258.262 124.175 259.633 136.583 260.784 151.062Z" fill="#003F62"/>
<path d="M259.792 142.5C259.731 142.5 259.672 142.475 259.627 142.43C259.583 142.385 259.556 142.324 259.553 142.258L258.973 131.41C258.969 131.342 258.991 131.275 259.033 131.225C259.075 131.174 259.134 131.143 259.198 131.139C259.261 131.136 259.322 131.159 259.37 131.204C259.417 131.249 259.446 131.313 259.45 131.38L260.03 142.229C260.033 142.296 260.012 142.363 259.97 142.414C259.927 142.464 259.868 142.495 259.805 142.499L259.792 142.5Z" fill="#0C0C0C"/>
<path d="M351.883 208.482C353.996 208.482 356.078 207.934 357.952 206.885C359.826 205.837 361.435 204.318 362.644 202.459C363.853 200.599 364.624 198.455 364.894 196.207C365.163 193.959 364.922 191.674 364.19 189.548C363.448 187.389 346.043 137.969 342.73 128.812L318.196 139.471C320.06 144.62 326.809 164.135 332.232 179.855L323.223 178.805L320.387 206.777L350.463 208.4C350.934 208.455 351.408 208.482 351.883 208.482Z" fill="#003F62"/>
<path d="M276.963 114.225C277.043 114.214 279.248 123.109 296.45 121.725C308.359 120.768 311.265 112.076 311.536 112.076C310.252 111.783 308.167 111.479 307.596 111.153C305.721 110.073 304.355 108.758 303.668 105.935C303.13 103.728 302.855 95.2303 302.855 90.9669L284.53 95.3825C284.786 100.192 286.573 111.341 280.307 113.314C279.265 113.64 278.143 113.94 276.963 114.225Z" fill="#E98862"/>
<path d="M285.164 104.837C292.389 105.448 301.669 102.178 303.432 91.8427L305.022 82.5166C306.785 72.1815 303.152 62.8103 294.076 61.0307C285.001 59.251 276.789 66.2989 275.026 76.634L274.322 80.7625C273.646 84.7287 272.275 103.747 285.164 104.837Z" fill="#E98862"/>
<path d="M278.466 95.3481C279.762 88.3612 280.357 83.7002 280.288 78.7825C278.461 75.3493 278.942 71.4036 279.357 69.7003C278.099 70.5572 276.62 70.9639 275.133 70.862C275.133 70.862 278.154 57.8628 288.421 54.365C290.309 53.5769 295.129 52.5818 301.529 53.5231C306.973 54.3235 320.392 58.6883 322.309 74.8871V74.8963C322.372 75.4333 323.661 90.3586 326.228 97.5198C329.681 107.147 334.529 110.138 334.406 121.245C334.248 135.532 309.753 137.433 294.98 136.365C280.208 135.296 271.959 130.087 271.851 119.791C271.733 108.255 275.871 109.326 278.466 95.3481Z" fill="#0A0A0A"/>
<path d="M337.881 153.598L336.115 208.922L336.593 208.94L338.359 153.616L337.881 153.598Z" fill="#0C0C0C"/>
<path d="M181.992 90.3602L189.714 100.14L189.236 98.4611C189.092 97.9158 189.146 97.3321 189.388 96.828C189.63 96.3239 190.041 95.9369 190.538 95.7453C190.798 95.6559 191.072 95.6243 191.344 95.6524C191.616 95.6805 191.88 95.7676 192.119 95.9086C192.358 96.0495 192.568 96.2412 192.736 96.4721C192.904 96.7029 193.027 96.968 193.096 97.2513L196.626 111.506C197.072 113.305 196.844 115.22 195.991 116.842C195.139 118.464 193.729 119.665 192.063 120.188C190.128 120.795 188.068 120.769 186.147 120.113C184.226 119.457 182.532 118.201 181.282 116.506L175.629 108.815C175.328 108.421 175.163 107.928 175.163 107.419C175.162 106.911 175.325 106.417 175.624 106.022C175.901 105.672 176.276 105.425 176.693 105.32C177.11 105.214 177.548 105.254 177.942 105.434C177.948 105.409 177.959 105.386 177.973 105.366C177.988 105.346 178.006 105.33 178.026 105.317C178.047 105.305 178.07 105.298 178.093 105.295C178.117 105.293 178.14 105.295 178.163 105.303L177.116 103.884C176.795 103.467 176.626 102.941 176.639 102.401C176.652 101.862 176.846 101.345 177.187 100.947C177.535 100.565 178.003 100.335 178.501 100.303C178.998 100.271 179.489 100.438 179.878 100.772C179.881 100.749 179.887 100.727 179.898 100.707L179.467 100.125C179.187 99.7262 179.034 99.2413 179.03 98.7419C179.026 98.2424 179.173 97.755 179.447 97.3517C179.783 96.9174 180.264 96.6414 180.787 96.5828C181.31 96.5242 181.834 96.6876 182.246 97.0381L182.274 97.0089L179.029 92.8998C178.863 92.6891 178.738 92.4442 178.663 92.1801C178.588 91.916 178.563 91.6383 178.591 91.3638C178.62 91.0893 178.7 90.8238 178.827 90.5836C178.954 90.3434 179.125 90.1335 179.33 89.9667C179.738 89.6586 180.239 89.5279 180.733 89.6009C181.227 89.674 181.677 89.9453 181.992 90.3602Z" fill="#E98862"/>
<path opacity="0.2" d="M182.167 97.2667C182.175 97.2887 182.187 97.309 182.201 97.3266L185.396 101.279C185.431 101.312 185.475 101.33 185.521 101.33C185.568 101.33 185.612 101.313 185.647 101.28C185.682 101.248 185.705 101.203 185.712 101.154C185.718 101.105 185.708 101.055 185.683 101.013L182.488 97.0617C182.458 97.0259 182.419 97.0021 182.375 96.9947C182.331 96.9873 182.286 96.9966 182.248 97.021C182.21 97.0455 182.181 97.0835 182.167 97.1284C182.152 97.1733 182.153 97.2222 182.169 97.2667H182.167Z" fill="#0C0C0C"/>
<path opacity="0.2" d="M179.882 100.864C179.89 100.886 179.901 100.906 179.915 100.923L182.404 104.049C182.438 104.08 182.482 104.098 182.528 104.097C182.573 104.097 182.617 104.08 182.651 104.048C182.686 104.017 182.709 103.973 182.716 103.925C182.723 103.877 182.714 103.828 182.691 103.786L180.202 100.66C180.172 100.627 180.132 100.605 180.089 100.599C180.046 100.592 180.002 100.602 179.965 100.626C179.928 100.65 179.899 100.686 179.884 100.73C179.869 100.773 179.868 100.821 179.882 100.865L179.882 100.864Z" fill="#0C0C0C"/>
<path opacity="0.2" d="M177.94 105.567C177.948 105.591 177.961 105.612 177.976 105.63L179.183 107.077C179.198 107.102 179.218 107.123 179.242 107.139C179.265 107.155 179.291 107.165 179.318 107.169C179.346 107.173 179.374 107.171 179.4 107.162C179.426 107.153 179.451 107.139 179.471 107.119C179.492 107.099 179.508 107.075 179.519 107.048C179.53 107.021 179.536 106.991 179.535 106.962C179.534 106.932 179.528 106.903 179.516 106.876C179.504 106.85 179.486 106.826 179.465 106.807L178.257 105.36C178.227 105.328 178.187 105.307 178.145 105.302C178.102 105.296 178.059 105.306 178.023 105.33C177.986 105.354 177.958 105.391 177.943 105.434C177.929 105.477 177.927 105.524 177.94 105.567Z" fill="#0C0C0C"/>
<path d="M220.111 182.448C217.68 182.448 215.29 181.774 213.174 180.491C211.058 179.209 209.287 177.361 208.033 175.128L176.785 119.464L200.942 103.872L224.697 146.188L264.185 119.286L280.914 143.338L227.741 180.042C225.466 181.613 222.817 182.448 220.111 182.448Z" fill="#003F62"/>
<path d="M261.184 157.201C261.131 157.201 261.079 157.181 261.037 157.146C260.995 157.11 260.965 157.061 260.953 157.005C260.94 156.949 260.945 156.89 260.967 156.838C260.989 156.786 261.027 156.743 261.075 156.717L267.898 152.942C267.954 152.911 268.02 152.905 268.08 152.925C268.141 152.946 268.191 152.992 268.22 153.052C268.249 153.112 268.255 153.183 268.236 153.248C268.216 153.312 268.174 153.366 268.117 153.397L261.294 157.172C261.26 157.191 261.223 157.201 261.184 157.201Z" fill="#0C0C0C"/>
<path d="M152.548 446.993H135.626L128.777 372.633H145.699L152.548 446.993Z" fill="#003F62"/>
<path opacity="0.21" d="M152.548 446.993H135.626L128.777 372.633H145.699L152.548 446.993Z" fill="#0A0A0A"/>
<path d="M135.626 446.993H69.7634L76.6125 372.633H128.777L135.626 446.993Z" fill="#003F62"/>
<path d="M102.696 403.059C100.767 403.059 98.8574 402.652 97.0757 401.86C95.2939 401.069 93.675 399.909 92.3113 398.447C90.9477 396.985 89.866 395.249 89.128 393.338C88.39 391.428 88.0102 389.38 88.0102 387.312V380.577C88.0076 380.462 88.0265 380.347 88.0657 380.24C88.105 380.133 88.1638 380.036 88.2387 379.953C88.3136 379.871 88.4031 379.806 88.502 379.761C88.6008 379.716 88.707 379.693 88.8143 379.693C88.9216 379.693 89.0277 379.716 89.1266 379.761C89.2254 379.806 89.315 379.871 89.3899 379.953C89.4648 380.036 89.5236 380.133 89.5628 380.24C89.6021 380.347 89.6209 380.462 89.6183 380.577V387.311C89.6183 391.03 90.9961 394.597 93.4486 397.226C95.901 399.856 99.2273 401.333 102.696 401.333C106.164 401.333 109.49 399.856 111.943 397.226C114.395 394.597 115.773 391.03 115.773 387.311V380.577C115.773 380.348 115.858 380.129 116.008 379.967C116.159 379.805 116.364 379.714 116.577 379.714C116.791 379.714 116.995 379.805 117.146 379.967C117.297 380.129 117.381 380.348 117.381 380.577V387.311C117.377 391.486 115.829 395.489 113.076 398.441C110.322 401.394 106.589 403.054 102.696 403.059Z" fill="white"/>
<path opacity="0.08" d="M128.777 372.633L138.119 382.404L145.699 372.633H128.777Z" fill="#0A0A0A"/>
<path opacity="0.08" d="M135.626 446.993L143.184 437.222L152.548 446.993H135.626Z" fill="#0A0A0A"/>
<path d="M359.498 448H0.382689C0.333092 448.002 0.283644 447.993 0.237297 447.974C0.19095 447.955 0.148654 447.926 0.112936 447.889C0.0772172 447.852 0.048808 447.808 0.0294042 447.759C0.0100004 447.71 0 447.657 0 447.604C0 447.551 0.0100004 447.498 0.0294042 447.449C0.048808 447.4 0.0772172 447.356 0.112936 447.319C0.148654 447.282 0.19095 447.253 0.237297 447.234C0.283644 447.215 0.333092 447.206 0.382689 447.208H359.498C359.547 447.206 359.597 447.215 359.643 447.234C359.689 447.253 359.732 447.282 359.767 447.319C359.803 447.356 359.832 447.4 359.851 447.449C359.87 447.498 359.88 447.551 359.88 447.604C359.88 447.657 359.87 447.71 359.851 447.759C359.832 447.808 359.803 447.852 359.767 447.889C359.732 447.926 359.689 447.955 359.643 447.974C359.597 447.993 359.547 448.002 359.498 448Z" fill="#3F3F3F"/>
</svg>
