<svg width="110" height="110" viewBox="0 0 110 110" fill="none" xmlns="http://www.w3.org/2000/svg">
<path d="M55 110C85.3757 110 110 85.3757 110 55C110 24.6243 85.3757 0 55 0C24.6243 0 0 24.6243 0 55C0 85.3757 24.6243 110 55 110Z" fill="#003F62"/>
<path d="M80.2275 63.3449C79.996 63.345 79.7686 63.2824 79.5691 63.1635C79.3695 63.0446 79.2051 62.8739 79.0928 62.6689C69.9615 46.0159 44.994 45.7534 42.2226 45.7981H42.2096C42.0393 45.7989 41.8705 45.7658 41.7128 45.7007C41.5552 45.6355 41.4117 45.5395 41.2907 45.4183C41.0463 45.1734 40.908 44.8402 40.9063 44.4921C40.9045 44.144 41.0395 43.8095 41.2815 43.5621C41.5235 43.3148 41.8527 43.1748 42.1967 43.1731C45.2002 43.135 71.5008 43.4159 81.3584 61.3958C81.4686 61.5953 81.5253 61.8204 81.5229 62.0489C81.5205 62.2774 81.4591 62.5012 81.3448 62.6983C81.2304 62.8953 81.0672 63.0586 80.8712 63.1721C80.6752 63.2855 80.4533 63.3451 80.2275 63.3449Z" fill="#B3B3B3"/>
<path d="M69.4841 40.1097C69.1658 39.978 68.809 39.9792 68.4916 40.113C68.1742 40.2468 67.9221 40.5023 67.7903 40.8237L59.4761 61.2593C53.1344 51.6256 41.0942 47.3442 40.9658 47.2982L40.1228 49.7815C40.2551 49.8274 53.2394 54.4382 58.5371 64.7926L58.5514 64.7847C58.6855 65.062 58.9139 65.281 59.1946 65.4016C59.5126 65.5339 59.8696 65.5331 60.1869 65.3992C60.5043 65.2653 60.7561 65.0093 60.8871 64.6876L70.1896 41.8238C70.3204 41.5018 70.3196 41.1404 70.1873 40.819C70.055 40.4976 69.8021 40.2425 69.4841 40.1097Z" fill="#CCCCCC"/>
<path d="M31.7917 64.6141C31.5342 64.6147 31.2823 64.5376 31.0683 64.3926C30.8542 64.2477 30.6877 64.0415 30.59 63.8003C30.4923 63.5592 30.4678 63.294 30.5197 63.0388C30.5716 62.7835 30.6975 62.5496 30.8813 62.3671C35.9689 57.2956 40.6662 45.0906 42.2925 40.5625H42.1796C39.6767 40.5625 37.6406 38.5019 37.6406 35.9688C37.6406 33.4356 39.6767 31.375 42.1796 31.375H44.9135C45.2574 31.375 45.5873 31.5133 45.8305 31.7594C46.0737 32.0056 46.2103 32.3394 46.2103 32.6875C46.2103 33.0356 46.0737 33.3694 45.8305 33.6156C45.5873 33.8617 45.2574 34 44.9135 34H42.1796C41.1071 34 40.2343 34.8833 40.2343 35.9688C40.2343 37.0542 41.1071 37.9375 42.1796 37.9375H44.125C44.3305 37.9374 44.533 37.9868 44.716 38.0815C44.8989 38.1763 45.057 38.3136 45.1772 38.4823C45.2974 38.651 45.3762 38.8462 45.4073 39.0518C45.4383 39.2573 45.4206 39.4674 45.3557 39.6648C45.1158 40.3919 39.416 57.5436 32.7034 64.2361C32.4604 64.4785 32.1329 64.6143 31.7917 64.6141Z" fill="#999999"/>
<path d="M40.2344 64.8438H30.1278L37.2749 57.6119L36.3567 56.6826L29.2109 63.9158V53.6875H27.9141V63.9158L20.7683 56.6826L19.8501 57.6119L26.9972 64.8438H16.8906V66.1562H26.9972L19.8501 73.3881L20.7683 74.3174L27.9141 67.0842V77.3125H29.2109V67.0842L36.3567 74.3174L37.2749 73.3881L30.1278 66.1562H40.2344V64.8438ZM92.1094 64.8438H82.0028L89.1499 57.6119L88.2317 56.6826L81.0859 63.9158V53.6875H79.7891V63.9158L72.6433 56.6826L71.7251 57.6119L78.8722 64.8438H68.7656V66.1562H78.8722L71.7251 73.3881L72.6433 74.3174L79.7891 67.0842V77.3125H81.0859V67.0842L88.2317 74.3174L89.1499 73.3881L82.0028 66.1562H92.1094V64.8438ZM62.2812 73.375H60.9844V68.4111C60.9844 68.063 60.8477 67.7292 60.6045 67.483C60.3613 67.2369 60.0315 67.0986 59.6875 67.0986C59.3435 67.0986 59.0137 67.2369 58.7705 67.483C58.5273 67.7292 58.3906 68.063 58.3906 68.4111V73.375H57.0938C56.7498 73.375 56.4199 73.5133 56.1767 73.7594C55.9335 74.0056 55.7969 74.3394 55.7969 74.6875C55.7969 75.0356 55.9335 75.3694 56.1767 75.6156C56.4199 75.8617 56.7498 76 57.0938 76H62.2812C62.6252 76 62.9551 75.8617 63.1983 75.6156C63.4415 75.3694 63.5781 75.0356 63.5781 74.6875C63.5781 74.3394 63.4415 74.0056 63.1983 73.7594C62.9551 73.5133 62.6252 73.375 62.2812 73.375Z" fill="#808080"/>
<path d="M59.6875 69.4375C61.12 69.4375 62.2812 68.2622 62.2812 66.8125C62.2812 65.3628 61.12 64.1875 59.6875 64.1875C58.255 64.1875 57.0938 65.3628 57.0938 66.8125C57.0938 68.2622 58.255 69.4375 59.6875 69.4375Z" fill="#90B541"/>
<path d="M61.4786 64.9238C60.6525 66.4923 59.2272 67.5724 57.3662 67.9557C57.5772 68.3979 57.9067 68.7712 58.3171 69.0332C58.7275 69.2952 59.2024 69.4353 59.6876 69.4375C61.1142 69.4375 62.2814 68.2562 62.2814 66.8125C62.2814 66.0709 61.9701 65.4029 61.4786 64.9238Z" fill="#76991F"/>
<path d="M31.7917 63.3081C32.1859 63.9002 32.4133 64.5898 32.4497 65.3028C32.486 66.0158 32.3298 66.7253 31.9979 67.3553C31.666 67.9853 31.1709 68.512 30.5657 68.8788C29.9604 69.2456 29.268 69.4388 28.5625 69.4375C26.4097 69.4375 24.6719 67.6788 24.6719 65.5C24.6719 63.3213 26.4097 61.5625 28.5625 61.5625C29.9113 61.5625 31.0914 62.245 31.7917 63.295V63.3081Z" fill="#90B541"/>
<path d="M28.5625 76C34.2947 76 38.9375 71.3013 38.9375 65.5C38.9375 62.5469 37.7314 59.8694 35.7861 57.9662C33.8542 56.0594 31.261 54.9946 28.5625 55C22.8303 55 18.1875 59.6987 18.1875 65.5C18.1875 71.3013 22.8303 76 28.5625 76ZM37.7573 54.4619C40.8569 57.1 42.8281 61.0638 42.8281 65.5C42.8281 73.48 36.4475 79.9375 28.5625 79.9375C20.6775 79.9375 14.2969 73.48 14.2969 65.5C14.2969 57.52 20.6775 51.0625 28.5625 51.0625C32.0641 51.0625 35.2803 52.3356 37.7573 54.4619Z" fill="#666666"/>
<path d="M42.8282 65.5C42.8282 73.48 36.4476 79.9375 28.5626 79.9375C22.4543 79.9375 17.2538 76.0656 15.2307 70.6188C16.5138 72.6734 18.2908 74.3652 20.3956 75.5358C22.5003 76.7065 24.8641 77.3177 27.2657 77.3125C35.1507 77.3125 41.5313 70.855 41.5313 62.875C41.5313 61.0769 41.2071 59.3444 40.5976 57.7562C42.0112 59.9875 42.8282 62.6519 42.8282 65.5Z" fill="#545252"/>
<path d="M80.4375 76C86.1697 76 90.8125 71.3013 90.8125 65.5C90.8125 62.5469 89.6064 59.8694 87.6611 57.9662C85.7292 56.0594 83.136 54.9946 80.4375 55C74.7053 55 70.0625 59.6987 70.0625 65.5C70.0625 71.3013 74.7053 76 80.4375 76ZM89.6323 54.4619C92.7319 57.1 94.7031 61.0638 94.7031 65.5C94.7031 73.48 88.3225 79.9375 80.4375 79.9375C72.5525 79.9375 66.1719 73.48 66.1719 65.5C66.1719 57.52 72.5525 51.0625 80.4375 51.0625C83.9391 51.0625 87.1553 52.3356 89.6323 54.4619Z" fill="#666666"/>
<path d="M94.7032 65.5C94.7032 73.48 88.3226 79.9375 80.4376 79.9375C74.3293 79.9375 69.1288 76.0656 67.1057 70.6188C68.3888 72.6734 70.1658 74.3652 72.2706 75.5358C74.3753 76.7065 76.7391 77.3177 79.1407 77.3125C87.0257 77.3125 93.4063 70.855 93.4063 62.875C93.4063 61.0769 93.0821 59.3444 92.4726 57.7562C93.8862 59.9875 94.7032 62.6519 94.7032 65.5Z" fill="#545252"/>
<path d="M50.6094 31.375C51.3227 31.375 51.9062 31.9656 51.9062 32.6875V34C51.9062 34.7219 51.3227 35.3125 50.6094 35.3125H45.4219C44.7086 35.3125 44.125 34.7219 44.125 34V32.6875C44.125 31.9656 44.7086 31.375 45.4219 31.375H50.6094Z" fill="#FFCA3A"/>
<path d="M51.9062 32.6875V34C51.9062 34.7219 51.3227 35.3125 50.6094 35.3125H48.0156C48.7289 35.3125 49.3125 34.7219 49.3125 34V32.6875C49.3125 31.9656 48.7289 31.375 48.0156 31.375H50.6094C51.3227 31.375 51.9062 31.9656 51.9062 32.6875Z" fill="#FF9700"/>
<path d="M72.6563 36.625C73.7198 36.625 74.3293 37.8588 73.6938 38.725L72.1376 40.825C71.6448 41.4813 70.8796 41.875 70.0626 41.875H67.2484C66.561 41.875 65.8996 41.5994 65.4068 41.1006L63.2021 38.8694C62.3851 38.0425 62.9557 36.625 64.1099 36.625H72.6563Z" fill="#FFCA3A"/>
<path d="M72.6562 36.625H72.2568C71.1544 39.7697 67.9096 40.0244 64.8801 40.5677L65.4067 41.1006C65.8995 41.5994 66.5609 41.875 67.2482 41.875H70.0624C70.8795 41.875 71.6446 41.4813 72.1374 40.825L73.6937 38.725C74.3292 37.8588 73.7196 36.625 72.6562 36.625Z" fill="#FF9700"/>
<path d="M80.4375 61.5625C82.5903 61.5625 84.3281 63.3213 84.3281 65.5C84.3281 67.6788 82.5903 69.4375 80.4375 69.4375C78.2847 69.4375 76.5469 67.6788 76.5469 65.5C76.5469 63.6363 77.8048 62.0875 79.5167 61.6806L80.4375 61.5625Z" fill="#90B541"/>
<path d="M84.3281 65.5C84.3281 67.6787 82.5903 69.4375 80.4375 69.4375C79.2703 69.4375 78.2328 68.9256 77.5325 68.0987C77.6362 68.125 77.74 68.125 77.8437 68.125C79.9965 68.125 81.7343 66.3662 81.7343 64.1875C81.7343 63.19 81.3583 62.2844 80.7487 61.5887C82.7589 61.7331 84.3281 63.4262 84.3281 65.5ZM32.4531 65.5C32.4531 67.6787 30.7153 69.4375 28.5625 69.4375C27.3953 69.4375 26.3578 68.9256 25.6575 68.0987C25.7612 68.125 25.865 68.125 25.9687 68.125C28.1215 68.125 29.8593 66.3662 29.8593 64.1875C29.8593 63.19 29.4833 62.2844 28.8737 61.5887C30.8839 61.7331 32.4531 63.4262 32.4531 65.5Z" fill="#76991F"/>
<path d="M66.7036 69.4375H59.6875C61.1141 69.4375 62.2812 68.2563 62.2812 66.8125C62.2812 65.3688 61.1141 64.1875 59.6875 64.1875L66.3275 63.3475L70.3997 62.8356L79.5167 61.6806C78.668 61.8838 77.9124 62.3721 77.3731 63.0657C76.8337 63.7593 76.5425 64.6174 76.5469 65.5C76.5469 67.6788 78.2847 69.4375 80.4375 69.4375H66.7036Z" fill="#FFCA3A"/>
<path d="M76.5468 65.5C76.5468 63.6363 77.8048 62.0875 79.5167 61.6806L77.6945 61.9116C74.4653 65.9869 69.2091 68.1539 63.5625 69.4375H80.4374C78.2846 69.4375 76.5468 67.6788 76.5468 65.5Z" fill="#FF9700"/>
<path d="M27.7455 63.8594C26.9116 63.8594 26.909 65.1719 27.7455 65.1719C28.5794 65.1719 28.5807 63.8594 27.7455 63.8594ZM79.1264 64.1166C78.2925 64.1166 78.2899 65.4291 79.1264 65.4291C79.9616 65.4291 79.9629 64.1166 79.1264 64.1166Z" fill="#BFE26A"/>
<path d="M66.5661 38.0517C65.7322 38.0517 65.7309 39.3642 66.5661 39.3642C67.4013 39.3642 67.4026 38.0517 66.5661 38.0517Z" fill="#F9E4AF"/>
</svg>
