<svg width="110" height="110" viewBox="0 0 110 110" fill="none" xmlns="http://www.w3.org/2000/svg">
<path d="M55 110C85.3757 110 110 85.3757 110 55C110 24.6243 85.3757 0 55 0C24.6243 0 0 24.6243 0 55C0 85.3757 24.6243 110 55 110Z" fill="#003F62"/>
<path d="M63.5963 40.1587V46.0991C57.5348 48.0847 51.4649 48.0847 45.4033 46.0991V40.1587C51.2904 41.8442 57.3686 41.7552 63.5963 40.1587Z" fill="#F2F0F0"/>
<path d="M83.8482 85.008L74.2146 89.8871C71.9696 89.1983 69.8576 89.1579 67.9534 90.1951C64.8521 93.7043 60.8857 93.6556 54.5 93.5664C48.1141 93.6556 44.1479 93.7042 41.0465 90.1951C39.1425 89.1577 37.0305 89.1982 34.7853 89.8871L25.1518 85.008C23.3593 84.1001 22.4891 82.063 23.1019 80.1869C27.9211 65.4339 34.7623 53.3056 45.4034 46.0991V40.1586C45.5032 34.4531 43.5409 29.8094 40.1068 25.8948C39.1838 24.8332 38.8928 23.3744 39.2338 22.0047C39.5747 20.6594 40.1817 19.5004 41.0964 18.6089C42.5265 17.215 44.7716 17.0286 46.4927 18.0903C49.3198 19.8327 51.8891 21.8184 54.5 22.0291C57.1108 21.8184 59.6802 19.8327 62.5072 18.0903C64.2284 17.0287 66.4734 17.215 67.9036 18.609C68.8183 19.5005 69.4253 20.6594 69.7661 22.0048C70.1071 23.3744 69.8159 24.8332 68.8931 25.895C65.4591 29.8094 63.4967 34.4533 63.5965 40.1588V46.0992C74.2376 53.3058 81.079 65.434 85.898 80.1871C86.5109 82.063 85.6406 84.1002 83.8482 85.008Z" fill="#F96464"/>
<path opacity="0.4" d="M43.1002 55.4189C42.4101 56.1565 41.7532 56.9183 41.1296 57.6801C40.5707 58.3785 39.5212 58.5039 38.793 57.9475C38.078 57.3883 37.9532 56.3753 38.5187 55.6701C39.1839 54.8515 39.8989 54.0331 40.6307 53.2387C41.2461 52.5742 42.2937 52.5256 42.9756 53.1253C43.6574 53.7252 43.7156 54.7544 43.1002 55.4189Z" fill="white"/>
<path opacity="0.08" d="M83.8517 85.009L74.2147 89.8879C73.5744 89.6934 72.9509 89.5475 72.3272 89.4665L81.141 85.009C82.9287 84.1013 83.8018 82.059 83.1865 80.1869C78.3721 65.4369 71.5289 53.3046 60.886 46.0998V40.1594C60.7861 34.4539 62.7485 29.8101 66.1825 25.8956C67.1055 24.834 67.3965 23.3752 67.0555 22.0054C66.7147 20.6602 66.1077 19.5011 65.193 18.6096C64.719 18.1476 64.1537 17.8154 63.5383 17.621C65.0517 17.1427 66.7478 17.4832 67.9037 18.6096C68.8184 19.5011 69.4254 20.66 69.7662 22.0054C70.1072 23.3751 69.816 24.8338 68.8932 25.8956C65.4592 29.81 63.4968 34.4539 63.5966 40.1594V46.0998C74.2397 53.3046 81.0828 65.4371 85.8972 80.1869C86.5125 82.0591 85.6393 84.1014 83.8517 85.009Z" fill="black"/>
<path d="M47.3327 64.1638C43.8653 73.8892 41.3126 82.9093 41.0466 90.1953C39.1426 89.1579 37.0306 89.1983 34.7854 89.8873C36.7477 79.8054 40.9633 71.2552 47.3327 64.1638ZM74.2147 89.8871C71.9697 89.1983 69.8577 89.1579 67.9535 90.1951C67.6875 82.9091 65.143 73.889 61.6675 64.1637C68.0367 71.2552 72.2524 79.8054 74.2147 89.8871Z" fill="#EA4E4E"/>
<path d="M86.2821 80.0677C80.928 63.677 73.6382 52.4959 63.9995 45.8942C64.4653 41.3604 62.1871 34.1433 69.2005 26.1489C71.2164 23.8304 70.1706 20.2633 68.1886 18.3314C66.6313 16.8135 64.2061 16.5774 62.292 17.7584C53.8926 22.9281 54.9728 22.8449 46.7083 17.7584C44.7946 16.578 42.3694 16.8128 40.8117 18.3314C38.825 20.2678 37.7767 23.8223 39.8009 26.1499C46.8454 34.1802 44.5661 41.6621 45.0007 45.8942C35.3618 52.4955 28.0721 63.6769 22.718 80.0677C22.044 82.1309 22.9894 84.355 24.9661 85.3567C27.3751 86.5767 32.1933 89.0167 34.6024 90.2366C34.6889 90.2798 34.817 90.2897 34.9062 90.2619C36.9116 89.6463 38.9588 89.5328 40.796 90.5127C44.0185 94.1047 48.1982 94.0469 54.494 93.9591C60.2676 94.0397 64.8699 94.2292 68.2039 90.5126C70.0559 89.525 72.0882 89.646 74.0936 90.2619C74.1811 90.2891 74.3093 90.2804 74.3972 90.2366C89.2704 82.7049 81.9038 86.4353 84.0337 85.3567C86.0105 84.355 86.9561 82.1309 86.2821 80.0677ZM45.8063 40.6787C51.2815 42.1467 57.1255 42.1421 63.1936 40.6649V45.8151C57.4232 47.6467 51.5766 47.6467 45.8063 45.8151V40.6787ZM40.4141 25.641C38.6952 23.6634 39.681 20.5436 41.3812 18.8866C42.6698 17.6303 44.6835 17.439 46.2777 18.4218C54.8486 23.7068 53.9552 23.8279 62.7224 18.4218C64.3165 17.4388 66.3303 17.6306 67.6188 18.8866C69.3278 20.5524 70.3022 23.6665 68.587 25.6395C64.9308 29.8071 63.1683 34.4622 63.1947 39.8512C57.1115 41.3628 51.2652 41.3651 45.8052 39.8591C45.8322 34.4631 44.0696 29.8076 40.4141 25.641ZM35.3067 89.3323C37.1334 80.4435 40.8099 72.6176 46.2505 66.0303C42.7708 76.0805 40.985 83.6209 40.671 89.5731C38.9659 88.8354 37.1041 88.875 35.3067 89.3323ZM68.329 89.5731C68.0143 83.596 66.2287 76.0551 62.7523 66.0334C68.1909 72.6197 71.8669 80.4453 73.6933 89.3322C71.9084 88.8784 70.0288 88.8377 68.329 89.5731ZM83.6624 84.6595L74.5018 89.2992C72.506 79.4905 68.2954 70.9471 61.9703 63.9052C61.6776 63.5812 61.1427 63.8889 61.2869 64.2933C65.2942 75.5057 67.2826 83.6957 67.5426 90.0492C64.573 93.3086 60.7665 93.2608 54.494 93.1739C48.2345 93.2614 44.4268 93.3091 41.4573 90.0492C41.7159 83.7261 43.7043 75.5362 47.713 64.293C47.8579 63.8871 47.319 63.5818 47.0296 63.9053C40.7047 70.9471 36.4939 79.4906 34.4981 89.2994L25.3375 84.6597C23.7098 83.8352 22.9312 82.0044 23.4859 80.3063C28.7863 64.0798 35.9809 53.0306 45.4743 46.5324C51.3943 48.4288 57.4385 48.4823 63.5258 46.5324C73.0195 53.0309 80.2141 64.0798 85.514 80.3062C86.0689 82.0042 85.2903 83.8351 83.6624 84.6595Z" fill="black"/>
</svg>
