<svg width="130" height="130" viewBox="0 0 130 130" fill="none" xmlns="http://www.w3.org/2000/svg">
<path d="M65 120C95.3757 120 120 95.3757 120 65C120 34.6243 95.3757 10 65 10C34.6243 10 10 34.6243 10 65C10 95.3757 34.6243 120 65 120Z" fill="#003F62"/>
<path d="M65 33C53 33 33.305 47.003 33 63C32.781 74.479 37 85 65 85C91 85 97 73.43 97 63C97 47 77 33 65 33Z" fill="white"/>
<path d="M65 97C76.0457 97 85 95.2091 85 93C85 90.7909 76.0457 89 65 89C53.9543 89 45 90.7909 45 93C45 95.2091 53.9543 97 65 97Z" fill="#F0F1F1"/>
<path d="M61 85H69V92C66.333 93.333 63.667 93.333 61 92V85ZM65 39C56 39 41 50 41 61C41 72 50 73 50 73H80C80 73 89 72 89 61C89 50 74 39 65 39Z" fill="#CFD3D4"/>
<path d="M65.0003 61C55.2953 61 46.7893 63.277 42.0303 66.693C44.3913 72.372 50.0003 73 50.0003 73H80.0003C80.0003 73 85.6093 72.372 87.9703 66.693C83.2113 63.277 74.7053 61 65.0003 61Z" fill="#F37A10"/>
<path d="M45 93C45 95.209 53.954 97 65 97V89C53.954 89 45 90.791 45 93Z" fill="white"/>
<path d="M61 85V92C62.333 92.667 63.667 93 65 93V85H61Z" fill="#F0F1F1"/>
</svg>